<mxfile host="app.diagrams.net" modified="2022-08-14T17:01:54.965Z" agent="5.0 (Windows)" etag="Az56K9-i1yV1fwYlZ9yu" version="20.2.3" type="github">
  <diagram id="ZFuYR8TKbrCAJ9G8dLMh" name="Page-1">
    <mxGraphModel dx="1298" dy="705" grid="1" gridSize="10" guides="1" tooltips="1" connect="1" arrows="1" fold="1" page="1" pageScale="1" pageWidth="1654" pageHeight="1169" math="0" shadow="0">
      <root>
        <mxCell id="0" />
        <mxCell id="1" parent="0" />
        <mxCell id="ZW1LjItA6SQIXv06q-9N-138" value="" style="group" parent="1" vertex="1" connectable="0">
          <mxGeometry x="710" y="592.5" width="120" height="95" as="geometry" />
        </mxCell>
        <mxCell id="ZW1LjItA6SQIXv06q-9N-37" value="idle fish (20)" style="rounded=0;whiteSpace=wrap;html=1;" parent="ZW1LjItA6SQIXv06q-9N-138" vertex="1">
          <mxGeometry y="35" width="120" height="60" as="geometry" />
        </mxCell>
        <mxCell id="ZW1LjItA6SQIXv06q-9N-139" value="" style="shape=image;verticalLabelPosition=bottom;labelBackgroundColor=default;verticalAlign=top;aspect=fixed;imageAspect=0;image=https://raw.githubusercontent.com/LoganTann/discord-shimejis/main/img/shime21.png;" parent="ZW1LjItA6SQIXv06q-9N-138" vertex="1">
          <mxGeometry x="65" width="50" height="50" as="geometry" />
        </mxCell>
        <mxCell id="ZW1LjItA6SQIXv06q-9N-3" value="" style="edgeStyle=orthogonalEdgeStyle;rounded=0;orthogonalLoop=1;jettySize=auto;html=1;" parent="1" source="ZW1LjItA6SQIXv06q-9N-1" target="ZW1LjItA6SQIXv06q-9N-2" edge="1">
          <mxGeometry relative="1" as="geometry" />
        </mxCell>
        <mxCell id="ZW1LjItA6SQIXv06q-9N-5" value="" style="edgeStyle=orthogonalEdgeStyle;rounded=0;orthogonalLoop=1;jettySize=auto;html=1;" parent="1" source="ZW1LjItA6SQIXv06q-9N-1" target="ZW1LjItA6SQIXv06q-9N-4" edge="1">
          <mxGeometry relative="1" as="geometry" />
        </mxCell>
        <mxCell id="wyb6uJyL5mz71-DNMHDF-8" style="edgeStyle=orthogonalEdgeStyle;rounded=0;orthogonalLoop=1;jettySize=auto;html=1;exitX=1;exitY=1;exitDx=0;exitDy=0;entryX=0;entryY=0;entryDx=0;entryDy=0;" edge="1" parent="1" source="ZW1LjItA6SQIXv06q-9N-1" target="ZW1LjItA6SQIXv06q-9N-37">
          <mxGeometry relative="1" as="geometry" />
        </mxCell>
        <mxCell id="wyb6uJyL5mz71-DNMHDF-10" style="edgeStyle=orthogonalEdgeStyle;rounded=0;orthogonalLoop=1;jettySize=auto;html=1;exitX=0;exitY=1;exitDx=0;exitDy=0;entryX=0.617;entryY=0;entryDx=0;entryDy=0;entryPerimeter=0;" edge="1" parent="1" source="ZW1LjItA6SQIXv06q-9N-1" target="ZW1LjItA6SQIXv06q-9N-90">
          <mxGeometry relative="1" as="geometry" />
        </mxCell>
        <mxCell id="wyb6uJyL5mz71-DNMHDF-12" style="edgeStyle=orthogonalEdgeStyle;rounded=0;orthogonalLoop=1;jettySize=auto;html=1;exitX=0;exitY=0.75;exitDx=0;exitDy=0;entryX=1;entryY=0.25;entryDx=0;entryDy=0;" edge="1" parent="1" source="ZW1LjItA6SQIXv06q-9N-1" target="ZW1LjItA6SQIXv06q-9N-75">
          <mxGeometry relative="1" as="geometry" />
        </mxCell>
        <mxCell id="wyb6uJyL5mz71-DNMHDF-56" style="edgeStyle=orthogonalEdgeStyle;rounded=0;orthogonalLoop=1;jettySize=auto;html=1;exitX=0.25;exitY=0;exitDx=0;exitDy=0;entryX=0.267;entryY=1;entryDx=0;entryDy=0;entryPerimeter=0;" edge="1" parent="1" source="ZW1LjItA6SQIXv06q-9N-1" target="ZW1LjItA6SQIXv06q-9N-69">
          <mxGeometry relative="1" as="geometry" />
        </mxCell>
        <mxCell id="ZW1LjItA6SQIXv06q-9N-1" value="idle normal (1)" style="rounded=0;whiteSpace=wrap;html=1;" parent="1" vertex="1">
          <mxGeometry x="582" y="544" width="120" height="60" as="geometry" />
        </mxCell>
        <mxCell id="ZW1LjItA6SQIXv06q-9N-7" value="" style="edgeStyle=orthogonalEdgeStyle;rounded=0;orthogonalLoop=1;jettySize=auto;html=1;" parent="1" source="ZW1LjItA6SQIXv06q-9N-4" target="ZW1LjItA6SQIXv06q-9N-6" edge="1">
          <mxGeometry relative="1" as="geometry" />
        </mxCell>
        <mxCell id="ZW1LjItA6SQIXv06q-9N-18" style="edgeStyle=orthogonalEdgeStyle;rounded=0;orthogonalLoop=1;jettySize=auto;html=1;exitX=0.5;exitY=1;exitDx=0;exitDy=0;entryX=0.5;entryY=0;entryDx=0;entryDy=0;" parent="1" source="ZW1LjItA6SQIXv06q-9N-4" target="ZW1LjItA6SQIXv06q-9N-17" edge="1">
          <mxGeometry relative="1" as="geometry" />
        </mxCell>
        <mxCell id="ZW1LjItA6SQIXv06q-9N-20" style="edgeStyle=orthogonalEdgeStyle;rounded=0;orthogonalLoop=1;jettySize=auto;html=1;exitX=0.5;exitY=1;exitDx=0;exitDy=0;entryX=0.5;entryY=0;entryDx=0;entryDy=0;" parent="1" source="ZW1LjItA6SQIXv06q-9N-4" target="ZW1LjItA6SQIXv06q-9N-11" edge="1">
          <mxGeometry relative="1" as="geometry" />
        </mxCell>
        <mxCell id="ZW1LjItA6SQIXv06q-9N-8" value="" style="shape=image;verticalLabelPosition=bottom;labelBackgroundColor=default;verticalAlign=top;aspect=fixed;imageAspect=0;image=https://raw.githubusercontent.com/LoganTann/discord-shimejis/main/img/shime1.png;" parent="1" vertex="1">
          <mxGeometry x="870" y="30" width="160" height="160" as="geometry" />
        </mxCell>
        <mxCell id="ZW1LjItA6SQIXv06q-9N-21" value="" style="group" parent="1" vertex="1" connectable="0">
          <mxGeometry x="580" y="885" width="134" height="60" as="geometry" />
        </mxCell>
        <mxCell id="ZW1LjItA6SQIXv06q-9N-4" value="&lt;div&gt;idle sits&lt;/div&gt;&amp;nbsp;(11)" style="rounded=0;whiteSpace=wrap;html=1;" parent="ZW1LjItA6SQIXv06q-9N-21" vertex="1">
          <mxGeometry width="120" height="60" as="geometry" />
        </mxCell>
        <mxCell id="ZW1LjItA6SQIXv06q-9N-9" value="" style="shape=image;verticalLabelPosition=bottom;labelBackgroundColor=default;verticalAlign=top;aspect=fixed;imageAspect=0;image=https://raw.githubusercontent.com/LoganTann/discord-shimejis/main/img/shime11.png;" parent="ZW1LjItA6SQIXv06q-9N-21" vertex="1">
          <mxGeometry x="94" y="20" width="40" height="40" as="geometry" />
        </mxCell>
        <mxCell id="ZW1LjItA6SQIXv06q-9N-22" value="" style="group" parent="1" vertex="1" connectable="0">
          <mxGeometry x="580" y="955" width="134" height="90" as="geometry" />
        </mxCell>
        <mxCell id="ZW1LjItA6SQIXv06q-9N-6" value="&lt;div&gt;idle sits&lt;/div&gt;&amp;nbsp;and look up (26)" style="rounded=0;whiteSpace=wrap;html=1;" parent="ZW1LjItA6SQIXv06q-9N-22" vertex="1">
          <mxGeometry y="30" width="120" height="60" as="geometry" />
        </mxCell>
        <mxCell id="ZW1LjItA6SQIXv06q-9N-10" value="" style="shape=image;verticalLabelPosition=bottom;labelBackgroundColor=default;verticalAlign=top;aspect=fixed;imageAspect=0;image=https://raw.githubusercontent.com/LoganTann/discord-shimejis/main/img/shime26.png;" parent="ZW1LjItA6SQIXv06q-9N-22" vertex="1">
          <mxGeometry x="94" width="40" height="40" as="geometry" />
        </mxCell>
        <mxCell id="ZW1LjItA6SQIXv06q-9N-23" value="" style="group" parent="1" vertex="1" connectable="0">
          <mxGeometry x="730" y="955" width="120" height="90" as="geometry" />
        </mxCell>
        <mxCell id="ZW1LjItA6SQIXv06q-9N-17" value="idle sits and sticks tongue out (27 28 29)" style="rounded=0;whiteSpace=wrap;html=1;" parent="ZW1LjItA6SQIXv06q-9N-23" vertex="1">
          <mxGeometry y="30" width="120" height="60" as="geometry" />
        </mxCell>
        <mxCell id="ZW1LjItA6SQIXv06q-9N-14" value="" style="shape=image;verticalLabelPosition=bottom;labelBackgroundColor=default;verticalAlign=top;aspect=fixed;imageAspect=0;image=https://raw.githubusercontent.com/LoganTann/discord-shimejis/main/img/shime29.png;" parent="ZW1LjItA6SQIXv06q-9N-23" vertex="1">
          <mxGeometry x="80" width="40" height="40" as="geometry" />
        </mxCell>
        <mxCell id="ZW1LjItA6SQIXv06q-9N-24" value="" style="group" parent="1" vertex="1" connectable="0">
          <mxGeometry x="430" y="955" width="120" height="90" as="geometry" />
        </mxCell>
        <mxCell id="ZW1LjItA6SQIXv06q-9N-11" value="idle sits and sing (15 16 17)" style="rounded=0;whiteSpace=wrap;html=1;" parent="ZW1LjItA6SQIXv06q-9N-24" vertex="1">
          <mxGeometry y="30" width="120" height="60" as="geometry" />
        </mxCell>
        <mxCell id="ZW1LjItA6SQIXv06q-9N-13" value="" style="shape=image;verticalLabelPosition=bottom;labelBackgroundColor=default;verticalAlign=top;aspect=fixed;imageAspect=0;image=https://raw.githubusercontent.com/LoganTann/discord-shimejis/main/img/shime17.png;" parent="ZW1LjItA6SQIXv06q-9N-24" vertex="1">
          <mxGeometry x="80" width="40" height="40" as="geometry" />
        </mxCell>
        <mxCell id="ZW1LjItA6SQIXv06q-9N-26" style="edgeStyle=orthogonalEdgeStyle;rounded=0;orthogonalLoop=1;jettySize=auto;html=1;exitX=0.5;exitY=1;exitDx=0;exitDy=0;entryX=0.5;entryY=0;entryDx=0;entryDy=0;" parent="1" source="ZW1LjItA6SQIXv06q-9N-4" target="ZW1LjItA6SQIXv06q-9N-25" edge="1">
          <mxGeometry relative="1" as="geometry" />
        </mxCell>
        <mxCell id="ZW1LjItA6SQIXv06q-9N-28" value="" style="group" parent="1" vertex="1" connectable="0">
          <mxGeometry x="300" y="965" width="120" height="80" as="geometry" />
        </mxCell>
        <mxCell id="ZW1LjItA6SQIXv06q-9N-25" value="idle sits and bored (30)" style="rounded=0;whiteSpace=wrap;html=1;" parent="ZW1LjItA6SQIXv06q-9N-28" vertex="1">
          <mxGeometry y="20" width="120" height="60" as="geometry" />
        </mxCell>
        <mxCell id="ZW1LjItA6SQIXv06q-9N-27" value="" style="shape=image;verticalLabelPosition=bottom;labelBackgroundColor=default;verticalAlign=top;aspect=fixed;imageAspect=0;image=https://raw.githubusercontent.com/LoganTann/discord-shimejis/main/img/shime30.png;" parent="ZW1LjItA6SQIXv06q-9N-28" vertex="1">
          <mxGeometry x="80" width="40" height="40" as="geometry" />
        </mxCell>
        <mxCell id="ZW1LjItA6SQIXv06q-9N-31" value="" style="edgeStyle=orthogonalEdgeStyle;rounded=0;orthogonalLoop=1;jettySize=auto;html=1;" parent="1" source="ZW1LjItA6SQIXv06q-9N-29" target="ZW1LjItA6SQIXv06q-9N-30" edge="1">
          <mxGeometry relative="1" as="geometry" />
        </mxCell>
        <mxCell id="ZW1LjItA6SQIXv06q-9N-33" value="" style="group" parent="1" vertex="1" connectable="0">
          <mxGeometry x="880" y="850" width="140" height="95" as="geometry" />
        </mxCell>
        <mxCell id="ZW1LjItA6SQIXv06q-9N-29" value="idle sits on tchat (30 31)" style="rounded=0;whiteSpace=wrap;html=1;" parent="ZW1LjItA6SQIXv06q-9N-33" vertex="1">
          <mxGeometry y="35" width="120" height="60" as="geometry" />
        </mxCell>
        <mxCell id="ZW1LjItA6SQIXv06q-9N-32" value="" style="shape=image;verticalLabelPosition=bottom;labelBackgroundColor=default;verticalAlign=top;aspect=fixed;imageAspect=0;image=https://raw.githubusercontent.com/LoganTann/discord-shimejis/main/img/shime31.png;" parent="ZW1LjItA6SQIXv06q-9N-33" vertex="1">
          <mxGeometry x="90" width="50" height="50" as="geometry" />
        </mxCell>
        <mxCell id="ZW1LjItA6SQIXv06q-9N-36" value="" style="group" parent="1" vertex="1" connectable="0">
          <mxGeometry x="880" y="955" width="120" height="90" as="geometry" />
        </mxCell>
        <mxCell id="ZW1LjItA6SQIXv06q-9N-30" value="&lt;div&gt;idle sits and move legs (32 33 34)&lt;/div&gt;" style="rounded=0;whiteSpace=wrap;html=1;" parent="ZW1LjItA6SQIXv06q-9N-36" vertex="1">
          <mxGeometry y="30" width="120" height="60" as="geometry" />
        </mxCell>
        <mxCell id="ZW1LjItA6SQIXv06q-9N-34" value="" style="shape=image;verticalLabelPosition=bottom;labelBackgroundColor=default;verticalAlign=top;aspect=fixed;imageAspect=0;image=https://raw.githubusercontent.com/LoganTann/discord-shimejis/main/img/shime32.png;" parent="ZW1LjItA6SQIXv06q-9N-36" vertex="1">
          <mxGeometry x="77" width="43" height="43" as="geometry" />
        </mxCell>
        <mxCell id="ZW1LjItA6SQIXv06q-9N-51" value="" style="group" parent="1" vertex="1" connectable="0">
          <mxGeometry x="880" y="730" width="120" height="85" as="geometry" />
        </mxCell>
        <mxCell id="ZW1LjItA6SQIXv06q-9N-49" value="jump (44, 45)" style="rounded=0;whiteSpace=wrap;html=1;" parent="ZW1LjItA6SQIXv06q-9N-51" vertex="1">
          <mxGeometry y="25" width="120" height="60" as="geometry" />
        </mxCell>
        <mxCell id="ZW1LjItA6SQIXv06q-9N-66" value="" style="shape=image;verticalLabelPosition=bottom;labelBackgroundColor=default;verticalAlign=top;aspect=fixed;imageAspect=0;image=https://raw.githubusercontent.com/LoganTann/discord-shimejis/main/img/shime44.png;" parent="ZW1LjItA6SQIXv06q-9N-51" vertex="1">
          <mxGeometry x="70" y="10" width="30" height="30" as="geometry" />
        </mxCell>
        <mxCell id="ZW1LjItA6SQIXv06q-9N-52" style="edgeStyle=orthogonalEdgeStyle;rounded=0;orthogonalLoop=1;jettySize=auto;html=1;exitX=0.5;exitY=1;exitDx=0;exitDy=0;entryX=0.5;entryY=0;entryDx=0;entryDy=0;" parent="1" source="ZW1LjItA6SQIXv06q-9N-49" target="ZW1LjItA6SQIXv06q-9N-29" edge="1">
          <mxGeometry relative="1" as="geometry" />
        </mxCell>
        <mxCell id="ZW1LjItA6SQIXv06q-9N-56" value="" style="group" parent="1" vertex="1" connectable="0">
          <mxGeometry x="710" y="250" width="320" height="85" as="geometry" />
        </mxCell>
        <mxCell id="ZW1LjItA6SQIXv06q-9N-46" value="" style="group" parent="ZW1LjItA6SQIXv06q-9N-56" vertex="1" connectable="0">
          <mxGeometry y="10" width="120" height="75" as="geometry" />
        </mxCell>
        <mxCell id="ZW1LjItA6SQIXv06q-9N-44" value="idle climb up (23)" style="rounded=0;whiteSpace=wrap;html=1;" parent="ZW1LjItA6SQIXv06q-9N-46" vertex="1">
          <mxGeometry y="15" width="120" height="60" as="geometry" />
        </mxCell>
        <mxCell id="ZW1LjItA6SQIXv06q-9N-45" value="" style="shape=image;verticalLabelPosition=bottom;labelBackgroundColor=default;verticalAlign=top;aspect=fixed;imageAspect=0;image=https://raw.githubusercontent.com/LoganTann/discord-shimejis/main/img/shime23.png;" parent="ZW1LjItA6SQIXv06q-9N-46" vertex="1">
          <mxGeometry x="80" width="40" height="40" as="geometry" />
        </mxCell>
        <mxCell id="ZW1LjItA6SQIXv06q-9N-48" value="" style="edgeStyle=orthogonalEdgeStyle;rounded=0;orthogonalLoop=1;jettySize=auto;html=1;" parent="ZW1LjItA6SQIXv06q-9N-56" source="ZW1LjItA6SQIXv06q-9N-44" target="ZW1LjItA6SQIXv06q-9N-47" edge="1">
          <mxGeometry relative="1" as="geometry" />
        </mxCell>
        <mxCell id="ZW1LjItA6SQIXv06q-9N-54" value="" style="group" parent="ZW1LjItA6SQIXv06q-9N-56" vertex="1" connectable="0">
          <mxGeometry x="200" width="120" height="85" as="geometry" />
        </mxCell>
        <mxCell id="ZW1LjItA6SQIXv06q-9N-47" value="move as climb up (23 24 25)" style="rounded=0;whiteSpace=wrap;html=1;" parent="ZW1LjItA6SQIXv06q-9N-54" vertex="1">
          <mxGeometry y="25" width="120" height="60" as="geometry" />
        </mxCell>
        <mxCell id="ZW1LjItA6SQIXv06q-9N-53" value="" style="shape=image;verticalLabelPosition=bottom;labelBackgroundColor=default;verticalAlign=top;aspect=fixed;imageAspect=0;image=https://raw.githubusercontent.com/LoganTann/discord-shimejis/main/img/shime25.png;" parent="ZW1LjItA6SQIXv06q-9N-54" vertex="1">
          <mxGeometry x="70" y="10" width="40" height="40" as="geometry" />
        </mxCell>
        <mxCell id="ZW1LjItA6SQIXv06q-9N-96" style="edgeStyle=orthogonalEdgeStyle;rounded=0;orthogonalLoop=1;jettySize=auto;html=1;exitX=1;exitY=0.5;exitDx=0;exitDy=0;" parent="1" source="ZW1LjItA6SQIXv06q-9N-76" target="ZW1LjItA6SQIXv06q-9N-94" edge="1">
          <mxGeometry relative="1" as="geometry" />
        </mxCell>
        <mxCell id="ZW1LjItA6SQIXv06q-9N-100" style="edgeStyle=orthogonalEdgeStyle;rounded=0;orthogonalLoop=1;jettySize=auto;html=1;entryX=0.336;entryY=0.04;entryDx=0;entryDy=0;entryPerimeter=0;" parent="1" source="ZW1LjItA6SQIXv06q-9N-76" target="ZW1LjItA6SQIXv06q-9N-101" edge="1">
          <mxGeometry relative="1" as="geometry">
            <Array as="points">
              <mxPoint x="330" y="160" />
              <mxPoint x="460" y="160" />
              <mxPoint x="460" y="185" />
            </Array>
          </mxGeometry>
        </mxCell>
        <mxCell id="ZW1LjItA6SQIXv06q-9N-80" value="" style="group" parent="1" vertex="1" connectable="0">
          <mxGeometry x="830" y="519" width="120" height="85" as="geometry" />
        </mxCell>
        <mxCell id="ZW1LjItA6SQIXv06q-9N-2" value="&lt;div&gt;walk (left / right)&lt;/div&gt;&lt;div&gt;(1 2 1 3)&lt;br&gt;&lt;/div&gt;" style="rounded=0;whiteSpace=wrap;html=1;" parent="ZW1LjItA6SQIXv06q-9N-80" vertex="1">
          <mxGeometry y="25" width="120" height="60" as="geometry" />
        </mxCell>
        <mxCell id="ZW1LjItA6SQIXv06q-9N-79" value="" style="shape=image;verticalLabelPosition=bottom;labelBackgroundColor=default;verticalAlign=top;aspect=fixed;imageAspect=0;image=https://raw.githubusercontent.com/LoganTann/discord-shimejis/main/img/shime2.png;" parent="ZW1LjItA6SQIXv06q-9N-80" vertex="1">
          <mxGeometry x="80" width="40" height="40" as="geometry" />
        </mxCell>
        <mxCell id="ZW1LjItA6SQIXv06q-9N-93" value="" style="group" parent="1" vertex="1" connectable="0">
          <mxGeometry x="430" y="260" width="130" height="80" as="geometry" />
        </mxCell>
        <mxCell id="ZW1LjItA6SQIXv06q-9N-89" value="move fly left (22)" style="rounded=0;whiteSpace=wrap;html=1;" parent="ZW1LjItA6SQIXv06q-9N-93" vertex="1">
          <mxGeometry y="20" width="120" height="60" as="geometry" />
        </mxCell>
        <mxCell id="ZW1LjItA6SQIXv06q-9N-92" value="" style="shape=image;verticalLabelPosition=bottom;labelBackgroundColor=default;verticalAlign=top;aspect=fixed;imageAspect=0;image=https://raw.githubusercontent.com/LoganTann/discord-shimejis/main/img/shime22.png;" parent="ZW1LjItA6SQIXv06q-9N-93" vertex="1">
          <mxGeometry x="80" width="50" height="50" as="geometry" />
        </mxCell>
        <mxCell id="ZW1LjItA6SQIXv06q-9N-97" style="edgeStyle=orthogonalEdgeStyle;rounded=0;orthogonalLoop=1;jettySize=auto;html=1;entryX=0;entryY=0.5;entryDx=0;entryDy=0;" parent="1" source="ZW1LjItA6SQIXv06q-9N-94" target="ZW1LjItA6SQIXv06q-9N-95" edge="1">
          <mxGeometry relative="1" as="geometry" />
        </mxCell>
        <mxCell id="ZW1LjItA6SQIXv06q-9N-98" style="edgeStyle=orthogonalEdgeStyle;rounded=0;orthogonalLoop=1;jettySize=auto;html=1;" parent="1" source="ZW1LjItA6SQIXv06q-9N-94" target="ZW1LjItA6SQIXv06q-9N-101" edge="1">
          <mxGeometry relative="1" as="geometry">
            <mxPoint x="475" y="190" as="targetPoint" />
          </mxGeometry>
        </mxCell>
        <mxCell id="ZW1LjItA6SQIXv06q-9N-121" style="edgeStyle=orthogonalEdgeStyle;rounded=0;orthogonalLoop=1;jettySize=auto;html=1;" parent="1" source="ZW1LjItA6SQIXv06q-9N-101" target="ZW1LjItA6SQIXv06q-9N-89" edge="1">
          <mxGeometry relative="1" as="geometry" />
        </mxCell>
        <mxCell id="ZW1LjItA6SQIXv06q-9N-122" style="edgeStyle=orthogonalEdgeStyle;rounded=0;orthogonalLoop=1;jettySize=auto;html=1;exitX=0.5;exitY=1;exitDx=0;exitDy=0;entryX=0.5;entryY=0;entryDx=0;entryDy=0;" parent="1" source="ZW1LjItA6SQIXv06q-9N-101" target="ZW1LjItA6SQIXv06q-9N-114" edge="1">
          <mxGeometry relative="1" as="geometry">
            <Array as="points">
              <mxPoint x="475" y="240" />
              <mxPoint x="300" y="240" />
            </Array>
          </mxGeometry>
        </mxCell>
        <mxCell id="ZW1LjItA6SQIXv06q-9N-123" style="edgeStyle=orthogonalEdgeStyle;rounded=0;orthogonalLoop=1;jettySize=auto;html=1;entryX=0;entryY=0.5;entryDx=0;entryDy=0;" parent="1" source="ZW1LjItA6SQIXv06q-9N-101" target="ZW1LjItA6SQIXv06q-9N-44" edge="1">
          <mxGeometry relative="1" as="geometry" />
        </mxCell>
        <mxCell id="ZW1LjItA6SQIXv06q-9N-124" style="edgeStyle=orthogonalEdgeStyle;rounded=0;orthogonalLoop=1;jettySize=auto;html=1;entryX=0;entryY=0.5;entryDx=0;entryDy=0;" parent="1" source="ZW1LjItA6SQIXv06q-9N-101" target="ZW1LjItA6SQIXv06q-9N-59" edge="1">
          <mxGeometry relative="1" as="geometry" />
        </mxCell>
        <mxCell id="ZW1LjItA6SQIXv06q-9N-101" value="ontouchleave" style="rounded=1;whiteSpace=wrap;html=1;" parent="1" vertex="1">
          <mxGeometry x="430" y="185" width="90" height="20" as="geometry" />
        </mxCell>
        <mxCell id="ZW1LjItA6SQIXv06q-9N-103" style="edgeStyle=orthogonalEdgeStyle;rounded=0;orthogonalLoop=1;jettySize=auto;html=1;entryX=0.5;entryY=0;entryDx=0;entryDy=0;" parent="1" source="ZW1LjItA6SQIXv06q-9N-102" target="ZW1LjItA6SQIXv06q-9N-76" edge="1">
          <mxGeometry relative="1" as="geometry">
            <Array as="points">
              <mxPoint x="475" y="70" />
              <mxPoint x="330" y="70" />
            </Array>
          </mxGeometry>
        </mxCell>
        <mxCell id="ZW1LjItA6SQIXv06q-9N-104" style="edgeStyle=orthogonalEdgeStyle;rounded=0;orthogonalLoop=1;jettySize=auto;html=1;" parent="1" source="ZW1LjItA6SQIXv06q-9N-102" target="ZW1LjItA6SQIXv06q-9N-94" edge="1">
          <mxGeometry relative="1" as="geometry" />
        </mxCell>
        <mxCell id="ZW1LjItA6SQIXv06q-9N-106" style="edgeStyle=orthogonalEdgeStyle;rounded=0;orthogonalLoop=1;jettySize=auto;html=1;entryX=0.5;entryY=0;entryDx=0;entryDy=0;" parent="1" source="ZW1LjItA6SQIXv06q-9N-102" target="ZW1LjItA6SQIXv06q-9N-95" edge="1">
          <mxGeometry relative="1" as="geometry">
            <Array as="points">
              <mxPoint x="475" y="70" />
              <mxPoint x="620" y="70" />
            </Array>
          </mxGeometry>
        </mxCell>
        <mxCell id="ZW1LjItA6SQIXv06q-9N-102" value="ontouchmove" style="rounded=1;whiteSpace=wrap;html=1;" parent="1" vertex="1">
          <mxGeometry x="415" y="40" width="120" height="20" as="geometry" />
        </mxCell>
        <mxCell id="ZW1LjItA6SQIXv06q-9N-110" value="" style="group" parent="1" vertex="1" connectable="0">
          <mxGeometry x="270" y="75" width="130" height="75" as="geometry" />
        </mxCell>
        <mxCell id="ZW1LjItA6SQIXv06q-9N-76" value="grabbed fast&lt;br&gt;(left = 9; right = 10)" style="rounded=0;whiteSpace=wrap;html=1;" parent="ZW1LjItA6SQIXv06q-9N-110" vertex="1">
          <mxGeometry y="15" width="120" height="60" as="geometry" />
        </mxCell>
        <mxCell id="ZW1LjItA6SQIXv06q-9N-107" value="" style="shape=image;verticalLabelPosition=bottom;labelBackgroundColor=default;verticalAlign=top;aspect=fixed;imageAspect=0;image=https://raw.githubusercontent.com/LoganTann/discord-shimejis/main/img/shime9.png;" parent="ZW1LjItA6SQIXv06q-9N-110" vertex="1">
          <mxGeometry x="90" width="40" height="40" as="geometry" />
        </mxCell>
        <mxCell id="ZW1LjItA6SQIXv06q-9N-111" value="" style="group" parent="1" vertex="1" connectable="0">
          <mxGeometry x="415" y="70" width="125" height="80" as="geometry" />
        </mxCell>
        <mxCell id="ZW1LjItA6SQIXv06q-9N-94" value="&lt;div&gt;grabbed slow left&lt;/div&gt;&lt;div&gt;(left = 7; right = 8)&lt;br&gt;&lt;/div&gt;" style="rounded=0;whiteSpace=wrap;html=1;" parent="ZW1LjItA6SQIXv06q-9N-111" vertex="1">
          <mxGeometry y="20" width="120" height="60" as="geometry" />
        </mxCell>
        <mxCell id="ZW1LjItA6SQIXv06q-9N-108" value="" style="shape=image;verticalLabelPosition=bottom;labelBackgroundColor=default;verticalAlign=top;aspect=fixed;imageAspect=0;image=https://raw.githubusercontent.com/LoganTann/discord-shimejis/main/img/shime7.png;" parent="ZW1LjItA6SQIXv06q-9N-111" vertex="1">
          <mxGeometry x="85" width="40" height="40" as="geometry" />
        </mxCell>
        <mxCell id="ZW1LjItA6SQIXv06q-9N-112" value="" style="group" parent="1" vertex="1" connectable="0">
          <mxGeometry x="560" y="65" width="120" height="85" as="geometry" />
        </mxCell>
        <mxCell id="ZW1LjItA6SQIXv06q-9N-95" value="grabbed normal (1)" style="rounded=0;whiteSpace=wrap;html=1;" parent="ZW1LjItA6SQIXv06q-9N-112" vertex="1">
          <mxGeometry y="25" width="120" height="60" as="geometry" />
        </mxCell>
        <mxCell id="ZW1LjItA6SQIXv06q-9N-109" value="" style="shape=image;verticalLabelPosition=bottom;labelBackgroundColor=default;verticalAlign=top;aspect=fixed;imageAspect=0;image=https://raw.githubusercontent.com/LoganTann/discord-shimejis/main/img/shime1.png;" parent="ZW1LjItA6SQIXv06q-9N-112" vertex="1">
          <mxGeometry x="80" width="40" height="40" as="geometry" />
        </mxCell>
        <mxCell id="ZW1LjItA6SQIXv06q-9N-113" style="edgeStyle=orthogonalEdgeStyle;rounded=0;orthogonalLoop=1;jettySize=auto;html=1;entryX=0.656;entryY=0.07;entryDx=0;entryDy=0;entryPerimeter=0;" parent="1" source="ZW1LjItA6SQIXv06q-9N-95" target="ZW1LjItA6SQIXv06q-9N-101" edge="1">
          <mxGeometry relative="1" as="geometry">
            <Array as="points">
              <mxPoint x="620" y="160" />
              <mxPoint x="489" y="160" />
            </Array>
          </mxGeometry>
        </mxCell>
        <mxCell id="ZW1LjItA6SQIXv06q-9N-116" value="" style="group" parent="1" vertex="1" connectable="0">
          <mxGeometry x="240" y="310" width="125" height="75" as="geometry" />
        </mxCell>
        <mxCell id="ZW1LjItA6SQIXv06q-9N-114" value="move fall (4)" style="rounded=0;whiteSpace=wrap;html=1;" parent="ZW1LjItA6SQIXv06q-9N-116" vertex="1">
          <mxGeometry y="15" width="120" height="60" as="geometry" />
        </mxCell>
        <mxCell id="ZW1LjItA6SQIXv06q-9N-115" value="" style="shape=image;verticalLabelPosition=bottom;labelBackgroundColor=default;verticalAlign=top;aspect=fixed;imageAspect=0;image=https://raw.githubusercontent.com/LoganTann/discord-shimejis/main/img/shime4.png;" parent="ZW1LjItA6SQIXv06q-9N-116" vertex="1">
          <mxGeometry x="85" width="40" height="40" as="geometry" />
        </mxCell>
        <mxCell id="ZW1LjItA6SQIXv06q-9N-119" value="" style="group" parent="1" vertex="1" connectable="0">
          <mxGeometry x="430" y="385" width="130" height="85" as="geometry" />
        </mxCell>
        <mxCell id="ZW1LjItA6SQIXv06q-9N-117" value="move bump floor left (18 19 18 20)" style="rounded=0;whiteSpace=wrap;html=1;" parent="ZW1LjItA6SQIXv06q-9N-119" vertex="1">
          <mxGeometry y="25" width="120" height="60" as="geometry" />
        </mxCell>
        <mxCell id="ZW1LjItA6SQIXv06q-9N-118" value="" style="shape=image;verticalLabelPosition=bottom;labelBackgroundColor=default;verticalAlign=top;aspect=fixed;imageAspect=0;image=https://raw.githubusercontent.com/LoganTann/discord-shimejis/main/img/shime19.png;" parent="ZW1LjItA6SQIXv06q-9N-119" vertex="1">
          <mxGeometry x="90" width="40" height="40" as="geometry" />
        </mxCell>
        <mxCell id="ZW1LjItA6SQIXv06q-9N-125" style="edgeStyle=orthogonalEdgeStyle;rounded=0;orthogonalLoop=1;jettySize=auto;html=1;entryX=0;entryY=0.75;entryDx=0;entryDy=0;" parent="1" source="ZW1LjItA6SQIXv06q-9N-89" target="ZW1LjItA6SQIXv06q-9N-44" edge="1">
          <mxGeometry relative="1" as="geometry">
            <Array as="points">
              <mxPoint x="600" y="310" />
              <mxPoint x="600" y="320" />
            </Array>
          </mxGeometry>
        </mxCell>
        <mxCell id="ZW1LjItA6SQIXv06q-9N-126" style="edgeStyle=orthogonalEdgeStyle;rounded=0;orthogonalLoop=1;jettySize=auto;html=1;entryX=0;entryY=0.25;entryDx=0;entryDy=0;" parent="1" source="ZW1LjItA6SQIXv06q-9N-89" target="ZW1LjItA6SQIXv06q-9N-59" edge="1">
          <mxGeometry relative="1" as="geometry">
            <Array as="points">
              <mxPoint x="600" y="310" />
              <mxPoint x="600" y="390" />
            </Array>
          </mxGeometry>
        </mxCell>
        <mxCell id="ZW1LjItA6SQIXv06q-9N-129" style="edgeStyle=orthogonalEdgeStyle;rounded=0;orthogonalLoop=1;jettySize=auto;html=1;entryX=0.5;entryY=0;entryDx=0;entryDy=0;" parent="1" source="ZW1LjItA6SQIXv06q-9N-89" target="ZW1LjItA6SQIXv06q-9N-117" edge="1">
          <mxGeometry relative="1" as="geometry" />
        </mxCell>
        <mxCell id="ZW1LjItA6SQIXv06q-9N-130" style="edgeStyle=orthogonalEdgeStyle;rounded=0;orthogonalLoop=1;jettySize=auto;html=1;" parent="1" source="ZW1LjItA6SQIXv06q-9N-114" target="ZW1LjItA6SQIXv06q-9N-120" edge="1">
          <mxGeometry relative="1" as="geometry" />
        </mxCell>
        <mxCell id="ZW1LjItA6SQIXv06q-9N-131" style="edgeStyle=orthogonalEdgeStyle;rounded=0;orthogonalLoop=1;jettySize=auto;html=1;entryX=1;entryY=0.75;entryDx=0;entryDy=0;" parent="1" source="ZW1LjItA6SQIXv06q-9N-44" target="ZW1LjItA6SQIXv06q-9N-101" edge="1">
          <mxGeometry relative="1" as="geometry">
            <Array as="points">
              <mxPoint x="770" y="200" />
            </Array>
          </mxGeometry>
        </mxCell>
        <mxCell id="ZW1LjItA6SQIXv06q-9N-132" style="edgeStyle=orthogonalEdgeStyle;rounded=0;orthogonalLoop=1;jettySize=auto;html=1;entryX=1;entryY=0.75;entryDx=0;entryDy=0;" parent="1" source="ZW1LjItA6SQIXv06q-9N-59" target="ZW1LjItA6SQIXv06q-9N-101" edge="1">
          <mxGeometry relative="1" as="geometry">
            <Array as="points">
              <mxPoint x="770" y="200" />
            </Array>
          </mxGeometry>
        </mxCell>
        <mxCell id="ZW1LjItA6SQIXv06q-9N-134" value="" style="group" parent="1" vertex="1" connectable="0">
          <mxGeometry x="240" y="390" width="125" height="80" as="geometry" />
        </mxCell>
        <mxCell id="ZW1LjItA6SQIXv06q-9N-120" value="idle bump floor bottom (45)" style="rounded=0;whiteSpace=wrap;html=1;" parent="ZW1LjItA6SQIXv06q-9N-134" vertex="1">
          <mxGeometry y="20" width="120" height="60" as="geometry" />
        </mxCell>
        <mxCell id="ZW1LjItA6SQIXv06q-9N-133" value="" style="shape=image;verticalLabelPosition=bottom;labelBackgroundColor=default;verticalAlign=top;aspect=fixed;imageAspect=0;image=https://raw.githubusercontent.com/LoganTann/discord-shimejis/main/img/shime45.png;" parent="ZW1LjItA6SQIXv06q-9N-134" vertex="1">
          <mxGeometry x="95" width="30" height="30" as="geometry" />
        </mxCell>
        <mxCell id="ZW1LjItA6SQIXv06q-9N-135" style="edgeStyle=orthogonalEdgeStyle;rounded=0;orthogonalLoop=1;jettySize=auto;html=1;entryX=0;entryY=0.5;entryDx=0;entryDy=0;" parent="1" source="ZW1LjItA6SQIXv06q-9N-120" target="ZW1LjItA6SQIXv06q-9N-1" edge="1">
          <mxGeometry relative="1" as="geometry">
            <Array as="points">
              <mxPoint x="300" y="574" />
            </Array>
          </mxGeometry>
        </mxCell>
        <mxCell id="ZW1LjItA6SQIXv06q-9N-136" style="edgeStyle=orthogonalEdgeStyle;rounded=0;orthogonalLoop=1;jettySize=auto;html=1;entryX=0;entryY=0.5;entryDx=0;entryDy=0;" parent="1" source="ZW1LjItA6SQIXv06q-9N-117" target="ZW1LjItA6SQIXv06q-9N-1" edge="1">
          <mxGeometry relative="1" as="geometry">
            <Array as="points">
              <mxPoint x="483" y="574" />
            </Array>
          </mxGeometry>
        </mxCell>
        <mxCell id="ZW1LjItA6SQIXv06q-9N-39" value="" style="edgeStyle=orthogonalEdgeStyle;rounded=0;orthogonalLoop=1;jettySize=auto;html=1;" parent="1" source="ZW1LjItA6SQIXv06q-9N-37" target="ZW1LjItA6SQIXv06q-9N-38" edge="1">
          <mxGeometry relative="1" as="geometry" />
        </mxCell>
        <mxCell id="ZW1LjItA6SQIXv06q-9N-43" value="" style="group" parent="1" vertex="1" connectable="0">
          <mxGeometry x="710" y="700" width="120" height="85" as="geometry" />
        </mxCell>
        <mxCell id="ZW1LjItA6SQIXv06q-9N-38" value="move as fish (20 21)" style="rounded=0;whiteSpace=wrap;html=1;" parent="ZW1LjItA6SQIXv06q-9N-43" vertex="1">
          <mxGeometry y="25" width="120" height="60" as="geometry" />
        </mxCell>
        <mxCell id="ZW1LjItA6SQIXv06q-9N-42" value="" style="shape=image;verticalLabelPosition=bottom;labelBackgroundColor=default;verticalAlign=top;aspect=fixed;imageAspect=0;image=https://raw.githubusercontent.com/LoganTann/discord-shimejis/main/img/shime20.png;" parent="ZW1LjItA6SQIXv06q-9N-43" vertex="1">
          <mxGeometry x="76" width="44" height="44" as="geometry" />
        </mxCell>
        <mxCell id="ZW1LjItA6SQIXv06q-9N-78" value="" style="group" parent="1" vertex="1" connectable="0">
          <mxGeometry x="300" y="600" width="120" height="80" as="geometry" />
        </mxCell>
        <mxCell id="ZW1LjItA6SQIXv06q-9N-75" value="idle smug (38 39 40)" style="rounded=0;whiteSpace=wrap;html=1;" parent="ZW1LjItA6SQIXv06q-9N-78" vertex="1">
          <mxGeometry y="20" width="120" height="60" as="geometry" />
        </mxCell>
        <mxCell id="ZW1LjItA6SQIXv06q-9N-77" value="" style="shape=image;verticalLabelPosition=bottom;labelBackgroundColor=default;verticalAlign=top;aspect=fixed;imageAspect=0;image=https://raw.githubusercontent.com/LoganTann/discord-shimejis/main/img/shime39.png;" parent="ZW1LjItA6SQIXv06q-9N-78" vertex="1">
          <mxGeometry x="80" width="40" height="40" as="geometry" />
        </mxCell>
        <mxCell id="ZW1LjItA6SQIXv06q-9N-91" value="" style="group" parent="1" vertex="1" connectable="0">
          <mxGeometry x="480" y="670" width="128" height="78" as="geometry" />
        </mxCell>
        <mxCell id="ZW1LjItA6SQIXv06q-9N-90" value="idle points (37)" style="rounded=0;whiteSpace=wrap;html=1;" parent="ZW1LjItA6SQIXv06q-9N-91" vertex="1">
          <mxGeometry y="18" width="120" height="60" as="geometry" />
        </mxCell>
        <mxCell id="ZW1LjItA6SQIXv06q-9N-88" value="" style="shape=image;verticalLabelPosition=bottom;labelBackgroundColor=default;verticalAlign=top;aspect=fixed;imageAspect=0;image=https://raw.githubusercontent.com/LoganTann/discord-shimejis/main/img/shime37.png;" parent="ZW1LjItA6SQIXv06q-9N-91" vertex="1">
          <mxGeometry x="80" width="48" height="48" as="geometry" />
        </mxCell>
        <mxCell id="ZW1LjItA6SQIXv06q-9N-140" value="" style="shape=image;verticalLabelPosition=bottom;labelBackgroundColor=default;verticalAlign=top;aspect=fixed;imageAspect=0;image=https://raw.githubusercontent.com/LoganTann/discord-shimejis/main/img/shime1.png;" parent="1" vertex="1">
          <mxGeometry x="675" y="525" width="39" height="39" as="geometry" />
        </mxCell>
        <mxCell id="ZW1LjItA6SQIXv06q-9N-61" value="" style="edgeStyle=orthogonalEdgeStyle;rounded=0;orthogonalLoop=1;jettySize=auto;html=1;" parent="1" source="ZW1LjItA6SQIXv06q-9N-59" target="ZW1LjItA6SQIXv06q-9N-63" edge="1">
          <mxGeometry relative="1" as="geometry" />
        </mxCell>
        <mxCell id="ZW1LjItA6SQIXv06q-9N-62" value="" style="group" parent="1" vertex="1" connectable="0">
          <mxGeometry x="910" y="350" width="120" height="128" as="geometry" />
        </mxCell>
        <mxCell id="ZW1LjItA6SQIXv06q-9N-63" value="move as climb up (12 13 14)" style="rounded=0;whiteSpace=wrap;html=1;" parent="ZW1LjItA6SQIXv06q-9N-62" vertex="1">
          <mxGeometry y="30" width="120" height="60" as="geometry" />
        </mxCell>
        <mxCell id="ZW1LjItA6SQIXv06q-9N-65" value="" style="shape=image;verticalLabelPosition=bottom;labelBackgroundColor=default;verticalAlign=top;aspect=fixed;imageAspect=0;image=https://raw.githubusercontent.com/LoganTann/discord-shimejis/main/img/shime14.png;" parent="ZW1LjItA6SQIXv06q-9N-62" vertex="1">
          <mxGeometry x="80" width="40" height="40" as="geometry" />
        </mxCell>
        <mxCell id="ZW1LjItA6SQIXv06q-9N-59" value="idle climb left/right (13)" style="rounded=0;whiteSpace=wrap;html=1;" parent="1" vertex="1">
          <mxGeometry x="710" y="380" width="120" height="60" as="geometry" />
        </mxCell>
        <mxCell id="ZW1LjItA6SQIXv06q-9N-55" value="" style="shape=image;verticalLabelPosition=bottom;labelBackgroundColor=default;verticalAlign=top;aspect=fixed;imageAspect=0;image=https://raw.githubusercontent.com/LoganTann/discord-shimejis/main/img/shime13.png;" parent="1" vertex="1">
          <mxGeometry x="811" y="360" width="33" height="33" as="geometry" />
        </mxCell>
        <mxCell id="wyb6uJyL5mz71-DNMHDF-3" style="edgeStyle=orthogonalEdgeStyle;rounded=0;orthogonalLoop=1;jettySize=auto;html=1;exitX=0;exitY=0.75;exitDx=0;exitDy=0;entryX=1;entryY=0.75;entryDx=0;entryDy=0;" edge="1" parent="1" source="ZW1LjItA6SQIXv06q-9N-2" target="ZW1LjItA6SQIXv06q-9N-1">
          <mxGeometry relative="1" as="geometry" />
        </mxCell>
        <mxCell id="wyb6uJyL5mz71-DNMHDF-4" style="edgeStyle=orthogonalEdgeStyle;rounded=0;orthogonalLoop=1;jettySize=auto;html=1;exitX=0.75;exitY=0;exitDx=0;exitDy=0;entryX=0.75;entryY=1;entryDx=0;entryDy=0;" edge="1" parent="1" source="ZW1LjItA6SQIXv06q-9N-4" target="ZW1LjItA6SQIXv06q-9N-1">
          <mxGeometry relative="1" as="geometry" />
        </mxCell>
        <mxCell id="wyb6uJyL5mz71-DNMHDF-5" style="edgeStyle=orthogonalEdgeStyle;rounded=0;orthogonalLoop=1;jettySize=auto;html=1;exitX=0.5;exitY=0;exitDx=0;exitDy=0;entryX=0.75;entryY=1;entryDx=0;entryDy=0;" edge="1" parent="1" source="ZW1LjItA6SQIXv06q-9N-2" target="ZW1LjItA6SQIXv06q-9N-59">
          <mxGeometry relative="1" as="geometry" />
        </mxCell>
        <mxCell id="wyb6uJyL5mz71-DNMHDF-6" style="edgeStyle=orthogonalEdgeStyle;rounded=0;orthogonalLoop=1;jettySize=auto;html=1;exitX=0.5;exitY=1;exitDx=0;exitDy=0;" edge="1" parent="1" source="ZW1LjItA6SQIXv06q-9N-2" target="ZW1LjItA6SQIXv06q-9N-49">
          <mxGeometry relative="1" as="geometry" />
        </mxCell>
        <mxCell id="wyb6uJyL5mz71-DNMHDF-9" style="edgeStyle=orthogonalEdgeStyle;rounded=0;orthogonalLoop=1;jettySize=auto;html=1;exitX=0;exitY=0.25;exitDx=0;exitDy=0;entryX=1;entryY=1;entryDx=0;entryDy=0;" edge="1" parent="1" source="ZW1LjItA6SQIXv06q-9N-37" target="ZW1LjItA6SQIXv06q-9N-1">
          <mxGeometry relative="1" as="geometry" />
        </mxCell>
        <mxCell id="wyb6uJyL5mz71-DNMHDF-11" style="edgeStyle=orthogonalEdgeStyle;rounded=0;orthogonalLoop=1;jettySize=auto;html=1;exitX=0.75;exitY=0;exitDx=0;exitDy=0;entryX=0.125;entryY=0.983;entryDx=0;entryDy=0;entryPerimeter=0;" edge="1" parent="1" source="ZW1LjItA6SQIXv06q-9N-90" target="ZW1LjItA6SQIXv06q-9N-1">
          <mxGeometry relative="1" as="geometry" />
        </mxCell>
        <mxCell id="wyb6uJyL5mz71-DNMHDF-13" style="edgeStyle=orthogonalEdgeStyle;rounded=0;orthogonalLoop=1;jettySize=auto;html=1;exitX=1;exitY=0.5;exitDx=0;exitDy=0;entryX=-0.008;entryY=0.867;entryDx=0;entryDy=0;entryPerimeter=0;" edge="1" parent="1" source="ZW1LjItA6SQIXv06q-9N-75" target="ZW1LjItA6SQIXv06q-9N-1">
          <mxGeometry relative="1" as="geometry" />
        </mxCell>
        <mxCell id="wyb6uJyL5mz71-DNMHDF-14" style="edgeStyle=orthogonalEdgeStyle;rounded=0;orthogonalLoop=1;jettySize=auto;html=1;exitX=1;exitY=0.25;exitDx=0;exitDy=0;entryX=0;entryY=0.25;entryDx=0;entryDy=0;" edge="1" parent="1" source="ZW1LjItA6SQIXv06q-9N-4" target="ZW1LjItA6SQIXv06q-9N-29">
          <mxGeometry relative="1" as="geometry" />
        </mxCell>
        <mxCell id="wyb6uJyL5mz71-DNMHDF-15" style="edgeStyle=orthogonalEdgeStyle;rounded=0;orthogonalLoop=1;jettySize=auto;html=1;exitX=0;exitY=0.5;exitDx=0;exitDy=0;" edge="1" parent="1" source="ZW1LjItA6SQIXv06q-9N-29">
          <mxGeometry relative="1" as="geometry">
            <mxPoint x="700" y="910" as="targetPoint" />
          </mxGeometry>
        </mxCell>
        <mxCell id="wyb6uJyL5mz71-DNMHDF-16" style="edgeStyle=orthogonalEdgeStyle;rounded=0;orthogonalLoop=1;jettySize=auto;html=1;exitX=1;exitY=0.5;exitDx=0;exitDy=0;entryX=0;entryY=0.5;entryDx=0;entryDy=0;" edge="1" parent="1" source="ZW1LjItA6SQIXv06q-9N-38" target="ZW1LjItA6SQIXv06q-9N-49">
          <mxGeometry relative="1" as="geometry" />
        </mxCell>
        <mxCell id="wyb6uJyL5mz71-DNMHDF-17" style="edgeStyle=orthogonalEdgeStyle;rounded=0;orthogonalLoop=1;jettySize=auto;html=1;exitX=0.25;exitY=0;exitDx=0;exitDy=0;entryX=1;entryY=1;entryDx=0;entryDy=0;" edge="1" parent="1" source="ZW1LjItA6SQIXv06q-9N-63" target="ZW1LjItA6SQIXv06q-9N-44">
          <mxGeometry relative="1" as="geometry" />
        </mxCell>
        <mxCell id="wyb6uJyL5mz71-DNMHDF-20" value="" style="rounded=0;whiteSpace=wrap;html=1;fillColor=#CCCCCC;" vertex="1" parent="1">
          <mxGeometry x="14" y="760" width="160" height="375" as="geometry" />
        </mxCell>
        <mxCell id="wyb6uJyL5mz71-DNMHDF-21" value="unused" style="text;html=1;strokeColor=none;fillColor=none;align=center;verticalAlign=middle;whiteSpace=wrap;rounded=0;" vertex="1" parent="1">
          <mxGeometry x="30" y="770" width="60" height="30" as="geometry" />
        </mxCell>
        <mxCell id="wyb6uJyL5mz71-DNMHDF-45" style="edgeStyle=orthogonalEdgeStyle;rounded=0;orthogonalLoop=1;jettySize=auto;html=1;exitX=1;exitY=0.5;exitDx=0;exitDy=0;entryX=0;entryY=0.5;entryDx=0;entryDy=0;" edge="1" parent="1" source="wyb6uJyL5mz71-DNMHDF-22" target="wyb6uJyL5mz71-DNMHDF-30">
          <mxGeometry relative="1" as="geometry" />
        </mxCell>
        <mxCell id="wyb6uJyL5mz71-DNMHDF-22" value="Grabbed" style="rounded=0;whiteSpace=wrap;html=1;fillColor=#FFFFFF;" vertex="1" parent="1">
          <mxGeometry x="1250" y="110" width="120" height="30" as="geometry" />
        </mxCell>
        <mxCell id="wyb6uJyL5mz71-DNMHDF-35" style="edgeStyle=orthogonalEdgeStyle;rounded=0;orthogonalLoop=1;jettySize=auto;html=1;exitX=1;exitY=0.25;exitDx=0;exitDy=0;entryX=0;entryY=0.5;entryDx=0;entryDy=0;" edge="1" parent="1" source="wyb6uJyL5mz71-DNMHDF-24" target="wyb6uJyL5mz71-DNMHDF-31">
          <mxGeometry relative="1" as="geometry" />
        </mxCell>
        <mxCell id="wyb6uJyL5mz71-DNMHDF-24" value="Idle" style="rounded=0;whiteSpace=wrap;html=1;fillColor=#FFFFFF;" vertex="1" parent="1">
          <mxGeometry x="1250" y="160" width="120" height="30" as="geometry" />
        </mxCell>
        <mxCell id="wyb6uJyL5mz71-DNMHDF-37" style="edgeStyle=orthogonalEdgeStyle;rounded=0;orthogonalLoop=1;jettySize=auto;html=1;" edge="1" parent="1" source="wyb6uJyL5mz71-DNMHDF-25" target="wyb6uJyL5mz71-DNMHDF-36">
          <mxGeometry relative="1" as="geometry" />
        </mxCell>
        <mxCell id="wyb6uJyL5mz71-DNMHDF-25" value="Walk" style="rounded=0;whiteSpace=wrap;html=1;fillColor=#FFFFFF;" vertex="1" parent="1">
          <mxGeometry x="1250" y="205" width="120" height="30" as="geometry" />
        </mxCell>
        <mxCell id="wyb6uJyL5mz71-DNMHDF-43" style="edgeStyle=orthogonalEdgeStyle;rounded=0;orthogonalLoop=1;jettySize=auto;html=1;exitX=1;exitY=0;exitDx=0;exitDy=0;entryX=0;entryY=1;entryDx=0;entryDy=0;" edge="1" parent="1" source="wyb6uJyL5mz71-DNMHDF-26" target="wyb6uJyL5mz71-DNMHDF-39">
          <mxGeometry relative="1" as="geometry">
            <Array as="points">
              <mxPoint x="1370" y="300" />
              <mxPoint x="1440" y="300" />
            </Array>
          </mxGeometry>
        </mxCell>
        <mxCell id="wyb6uJyL5mz71-DNMHDF-26" value="Climb up" style="rounded=0;whiteSpace=wrap;html=1;fillColor=#FFFFFF;" vertex="1" parent="1">
          <mxGeometry x="1250" y="305" width="120" height="30" as="geometry" />
        </mxCell>
        <mxCell id="wyb6uJyL5mz71-DNMHDF-40" style="edgeStyle=orthogonalEdgeStyle;rounded=0;orthogonalLoop=1;jettySize=auto;html=1;entryX=0;entryY=0.5;entryDx=0;entryDy=0;" edge="1" parent="1" source="wyb6uJyL5mz71-DNMHDF-27" target="wyb6uJyL5mz71-DNMHDF-39">
          <mxGeometry relative="1" as="geometry" />
        </mxCell>
        <mxCell id="wyb6uJyL5mz71-DNMHDF-27" value="Climb left" style="rounded=0;whiteSpace=wrap;html=1;fillColor=#FFFFFF;" vertex="1" parent="1">
          <mxGeometry x="1250" y="260" width="120" height="30" as="geometry" />
        </mxCell>
        <mxCell id="wyb6uJyL5mz71-DNMHDF-28" value="behaviors" style="rounded=0;whiteSpace=wrap;html=1;fillColor=#FFFFFF;fontStyle=1" vertex="1" parent="1">
          <mxGeometry x="1110" y="30" width="130" height="60" as="geometry" />
        </mxCell>
        <mxCell id="wyb6uJyL5mz71-DNMHDF-48" style="edgeStyle=orthogonalEdgeStyle;rounded=0;orthogonalLoop=1;jettySize=auto;html=1;exitX=0.5;exitY=1;exitDx=0;exitDy=0;entryX=0.5;entryY=0;entryDx=0;entryDy=0;" edge="1" parent="1" source="wyb6uJyL5mz71-DNMHDF-29" target="wyb6uJyL5mz71-DNMHDF-46">
          <mxGeometry relative="1" as="geometry" />
        </mxCell>
        <mxCell id="wyb6uJyL5mz71-DNMHDF-29" value="Thrown" style="rounded=0;whiteSpace=wrap;html=1;fillColor=#FFFFFF;" vertex="1" parent="1">
          <mxGeometry x="1250" y="355" width="120" height="30" as="geometry" />
        </mxCell>
        <mxCell id="wyb6uJyL5mz71-DNMHDF-44" style="edgeStyle=orthogonalEdgeStyle;rounded=0;orthogonalLoop=1;jettySize=auto;html=1;exitX=0.5;exitY=1;exitDx=0;exitDy=0;entryX=0;entryY=0.5;entryDx=0;entryDy=0;" edge="1" parent="1" source="wyb6uJyL5mz71-DNMHDF-30" target="wyb6uJyL5mz71-DNMHDF-29">
          <mxGeometry relative="1" as="geometry">
            <Array as="points">
              <mxPoint x="1480" y="150" />
              <mxPoint x="1120" y="150" />
              <mxPoint x="1120" y="370" />
            </Array>
          </mxGeometry>
        </mxCell>
        <mxCell id="wyb6uJyL5mz71-DNMHDF-30" value="release" style="rhombus;whiteSpace=wrap;html=1;fillColor=#FFFFFF;" vertex="1" parent="1">
          <mxGeometry x="1440" y="110" width="80" height="30" as="geometry" />
        </mxCell>
        <mxCell id="wyb6uJyL5mz71-DNMHDF-33" style="edgeStyle=orthogonalEdgeStyle;rounded=0;orthogonalLoop=1;jettySize=auto;html=1;exitX=0.5;exitY=1;exitDx=0;exitDy=0;entryX=0.41;entryY=-0.013;entryDx=0;entryDy=0;entryPerimeter=0;" edge="1" parent="1" source="wyb6uJyL5mz71-DNMHDF-31" target="wyb6uJyL5mz71-DNMHDF-32">
          <mxGeometry relative="1" as="geometry" />
        </mxCell>
        <mxCell id="wyb6uJyL5mz71-DNMHDF-34" style="edgeStyle=orthogonalEdgeStyle;rounded=0;orthogonalLoop=1;jettySize=auto;html=1;exitX=1;exitY=0.5;exitDx=0;exitDy=0;entryX=1;entryY=0.75;entryDx=0;entryDy=0;" edge="1" parent="1" source="wyb6uJyL5mz71-DNMHDF-31" target="wyb6uJyL5mz71-DNMHDF-25">
          <mxGeometry relative="1" as="geometry">
            <Array as="points">
              <mxPoint x="1580" y="175" />
              <mxPoint x="1580" y="228" />
            </Array>
          </mxGeometry>
        </mxCell>
        <mxCell id="wyb6uJyL5mz71-DNMHDF-31" value="15% chance" style="rhombus;whiteSpace=wrap;html=1;fillColor=#FFFFFF;" vertex="1" parent="1">
          <mxGeometry x="1430" y="160" width="80" height="30" as="geometry" />
        </mxCell>
        <mxCell id="wyb6uJyL5mz71-DNMHDF-32" value="(change sprite state)" style="rounded=0;whiteSpace=wrap;html=1;fillColor=#FFFFFF;" vertex="1" parent="1">
          <mxGeometry x="1420" y="205" width="120" height="25" as="geometry" />
        </mxCell>
        <mxCell id="wyb6uJyL5mz71-DNMHDF-38" style="edgeStyle=orthogonalEdgeStyle;rounded=0;orthogonalLoop=1;jettySize=auto;html=1;entryX=0;entryY=0.5;entryDx=0;entryDy=0;" edge="1" parent="1" source="wyb6uJyL5mz71-DNMHDF-36" target="wyb6uJyL5mz71-DNMHDF-27">
          <mxGeometry relative="1" as="geometry">
            <Array as="points">
              <mxPoint x="1190" y="262" />
              <mxPoint x="1230" y="262" />
              <mxPoint x="1230" y="275" />
            </Array>
          </mxGeometry>
        </mxCell>
        <mxCell id="wyb6uJyL5mz71-DNMHDF-36" value="touchs wall + 50% chance" style="rhombus;whiteSpace=wrap;html=1;fillColor=#FFFFFF;" vertex="1" parent="1">
          <mxGeometry x="1150" y="197.5" width="80" height="45" as="geometry" />
        </mxCell>
        <mxCell id="wyb6uJyL5mz71-DNMHDF-41" style="edgeStyle=orthogonalEdgeStyle;rounded=0;orthogonalLoop=1;jettySize=auto;html=1;exitX=1;exitY=0.5;exitDx=0;exitDy=0;entryX=1;entryY=0.5;entryDx=0;entryDy=0;" edge="1" parent="1" source="wyb6uJyL5mz71-DNMHDF-39" target="wyb6uJyL5mz71-DNMHDF-29">
          <mxGeometry relative="1" as="geometry" />
        </mxCell>
        <mxCell id="wyb6uJyL5mz71-DNMHDF-42" style="edgeStyle=orthogonalEdgeStyle;rounded=0;orthogonalLoop=1;jettySize=auto;html=1;exitX=0.5;exitY=1;exitDx=0;exitDy=0;entryX=1;entryY=0.5;entryDx=0;entryDy=0;" edge="1" parent="1" source="wyb6uJyL5mz71-DNMHDF-39" target="wyb6uJyL5mz71-DNMHDF-26">
          <mxGeometry relative="1" as="geometry" />
        </mxCell>
        <mxCell id="wyb6uJyL5mz71-DNMHDF-39" value="10% chance" style="rhombus;whiteSpace=wrap;html=1;fillColor=#FFFFFF;" vertex="1" parent="1">
          <mxGeometry x="1420" y="265" width="80" height="25" as="geometry" />
        </mxCell>
        <mxCell id="wyb6uJyL5mz71-DNMHDF-49" style="edgeStyle=orthogonalEdgeStyle;rounded=0;orthogonalLoop=1;jettySize=auto;html=1;exitX=1;exitY=0.5;exitDx=0;exitDy=0;entryX=0;entryY=0.25;entryDx=0;entryDy=0;" edge="1" parent="1" source="wyb6uJyL5mz71-DNMHDF-46" target="wyb6uJyL5mz71-DNMHDF-24">
          <mxGeometry relative="1" as="geometry">
            <Array as="points">
              <mxPoint x="1140" y="414" />
              <mxPoint x="1140" y="168" />
            </Array>
          </mxGeometry>
        </mxCell>
        <mxCell id="wyb6uJyL5mz71-DNMHDF-51" style="edgeStyle=orthogonalEdgeStyle;rounded=0;orthogonalLoop=1;jettySize=auto;html=1;exitX=0.5;exitY=1;exitDx=0;exitDy=0;entryX=0.5;entryY=0;entryDx=0;entryDy=0;" edge="1" parent="1" source="wyb6uJyL5mz71-DNMHDF-46" target="wyb6uJyL5mz71-DNMHDF-50">
          <mxGeometry relative="1" as="geometry" />
        </mxCell>
        <mxCell id="wyb6uJyL5mz71-DNMHDF-46" value="touch floor" style="rhombus;whiteSpace=wrap;html=1;fillColor=#FFFFFF;" vertex="1" parent="1">
          <mxGeometry x="1270" y="399" width="80" height="30" as="geometry" />
        </mxCell>
        <mxCell id="wyb6uJyL5mz71-DNMHDF-52" style="edgeStyle=orthogonalEdgeStyle;rounded=0;orthogonalLoop=1;jettySize=auto;html=1;entryX=0;entryY=0.75;entryDx=0;entryDy=0;" edge="1" parent="1" source="wyb6uJyL5mz71-DNMHDF-50" target="wyb6uJyL5mz71-DNMHDF-27">
          <mxGeometry relative="1" as="geometry">
            <Array as="points">
              <mxPoint x="1200" y="450" />
              <mxPoint x="1200" y="282" />
            </Array>
          </mxGeometry>
        </mxCell>
        <mxCell id="wyb6uJyL5mz71-DNMHDF-50" value="touchs wall" style="rhombus;whiteSpace=wrap;html=1;fillColor=#FFFFFF;" vertex="1" parent="1">
          <mxGeometry x="1270" y="439" width="80" height="21" as="geometry" />
        </mxCell>
        <mxCell id="wyb6uJyL5mz71-DNMHDF-53" value="&lt;b&gt;sprites states&lt;br&gt;&lt;/b&gt;" style="rounded=0;whiteSpace=wrap;html=1;fillColor=#FFFFFF;" vertex="1" parent="1">
          <mxGeometry x="760" y="30" width="120" height="60" as="geometry" />
        </mxCell>
        <mxCell id="ZW1LjItA6SQIXv06q-9N-72" value="" style="group" parent="1" vertex="1" connectable="0">
          <mxGeometry x="580" y="429" width="128" height="70" as="geometry" />
        </mxCell>
        <mxCell id="ZW1LjItA6SQIXv06q-9N-69" value="falls slow" style="rounded=0;whiteSpace=wrap;html=1;" parent="ZW1LjItA6SQIXv06q-9N-72" vertex="1">
          <mxGeometry y="10" width="120" height="60" as="geometry" />
        </mxCell>
        <mxCell id="ZW1LjItA6SQIXv06q-9N-50" value="" style="shape=image;verticalLabelPosition=bottom;labelBackgroundColor=default;verticalAlign=top;aspect=fixed;imageAspect=0;image=data:image/png,iVBORw0KGgoAAAANSUhEUgAAAIAAAACACAYAAADDPmHLAAAACXBIWXMAAAsTAAALEwEAmpwYAAAAIGNIUk0AAHolAACAgwAA+f8AAIDpAAB1MAAA6mAAADqYAAAXb5JfxUYAADp3SURBVHja7L13mGVXdeb923ufcHPl2Dm3upVQQgkkEYQBEUwawAbbgOFjYDDBgBnjhD3j8GF7xh57MGMsp7GxsbEJxhLICCyEEJJQVqtbHau7cr75nLPD/HFu51QlVYuS6fM8h0c8fe+te89+91rvelfYwjnH+etH95LnH8F5AJy/zgPg/HUeAOev8wA4f50HwPnrPADOX+cBcP76kbm8pfiQa3/77mcAQYGYGUOO7ofCFsrRLJ4cw9Yz2Gw76DpWGBB5/KiKQyIdJCEIp3E2xPp1pocdPb1tHp5ZZaNojXH0CUcHkAUrQCQ4UfMDUTZSj1gbjCgpRpTIxc4Y9n4rwF3wAG35Kxh54uvw5F8isIA4609wzjFw+ZvpvfzlOGdxcRMnAnAWZ2Kc56FCH1trID0LfoHSygBkJwQZWIQY952P37T8APBDu9K1EQK5odSmXmx14+VoezGIfilEFikBgROtFzqLNha0jAV61sFeqxr3CeF/NSjV/j0RKsKxqAU5bwGe7evo2qx0hjc5nbzBaS7zQj/UYR4b5LFBFqd8nFQpSkTrBoQ1CJMEJFGfjGt9Mqpeo6LGBwYujR7Tdv3H56vNr6G8k3b42b+WQxz39c4D4Nysv+ASbewHbWTeaGWQN4U2TL4DmylhPf+oWThu0dwx/5WCwbVMiLAGGdfx50Yu9Goz/9JZit9X3HzVH+/b/UV0NAs4lJ8hbOsj27UCv9hNtnsTGIMxEcJBJtuBLKzGJA2EF54HwNKa+SOLt0k7+yvWmTebIKt0qRdT7MZ6GQQOnEVYuzAT4o737DaTp9m/hWBqH8HcyKfCjtzXV776vbvjyjRBDEHbanId/cgQrBMg8whtSJI6Aii1raLRsMTN3QjOA2CJt7zM4PTHXVz5mPHCXNI+gC714KSPcAZh9TP/G9YiBOj2AfzKVJfVzdeGvas/ne+7gDCyaO1wVmPiGOscSIXUBmuaCCcwSQNr1YII43kALGbtnb3SxsmfOrhYt/cTd6zAqSD140ux8Mf9MYv1Qky2iKrMvNmfq3+PUO6x1o06JxHCPQc9/HNVBxAOAx+09fnvmCB7cXPFdqLudSBVa+HP1UIITKYEcLkT4V0uinYarT/nHJemZPK8EHSOF14AIqcj/y+M5feTtv6guWI7NlNMF/4ch2fCWWymAFiijlU0+zYVk7DwDqub91md/C2WjceEn+cBsLR7T+BM3Gl1fFsS+2+Pe9cT9W5IQWHNs+RzLNbPokt92GwJXeylOXgBUf9mL/HDN+uGftBa3i9cC6zuPACWTM+xQg1UysPfMCZ6QTR4AUlbP8LoZ1+UEYK4Zz02yCJMAs6hC100V1xI3LGyYGPzhy5O/tY5UzisLfzIC0FCPYOPkQIL/fVEfC2W3qXRwNbU5Bv9Q3wsx4NOWAMI4u612EwRJne/WSZmDVK9HtzojzwAokP7nuZmkzgVtidzM/8UC//SaPACbJhfeoa/RKAQVqMLXVg/JDO68xqpo9uQ8uXAyPH27LBPE/nWM66AMP9hAdAc2vP0Nr8KlPWyf22VvDpesa21+GZZ7xhhNTbM0xy8gMzojotl0vgSyJsFcjaFidvkrH2z082X4OwmsAGJ2++k+GvgT4HqfzgAlAa2L57tW0O1PPrbDvfKuG8TJlM6JsQTyxwEBhdkaQ5sJTP82BWN+uyfWfwPOu1+xenqW60MQpMvYsMCSIlsVrq86vTlwrn3OHivgG/9xxKC8tGiWV9S02+01n0k7lqFLnYd4/OXcPHTsBKcXeT75NnfYw02yBP1bYGRJ16tlLjaZor9Sb4LXezGqcN5CQdtAyTtVcKp/VtVffYOId3HhXC/6/6jACBuykWtvnNmIJqb+V2d7yDpXIkw58DsC4HQMULH6U5caMzmLDKqYcPcWcEorMbk20l61kk5sac/7u5Ht/Wnf/cEV2bDPI3BbQTTQyqYG/50YzLoyA70fRIlcYsF6HIDQFKdWNTrrRa/aoW/Ku5Z18ranW1xXMszLNw6OCEJZg8h4ybNFdsXFk4KiUyaBNNDRH0bcV5w1vcJo0naBpDNCuHEbmymgPPCk953JJLoWYtTHm5y/y9qPRL5XuHXpfP5YYkKSxMGBuVFrL680kXZd+iuta1YW5/FhAPWsbiYO03zqvocutCNExKx0F3mLEJHYO1RE362v+YMcfc6VH2eYGIP0Yrtp3mbSwHTuTIFyNS+TzlhDvrk/9w9lwEga6sX9mwdInblX3e+5yWlvjMwfoGTCpk0UJUpZFwn6VqD8/wF7mSBbNYQSYzJtSMW83CtSf2/WER5h3M45RH1bSR76DHM/HgqZJ0mnD0MAqmbiPLEHyljnvATvu/EcxQAKrYLWBNB5MW/DvplujiI8/yTd78QOKEQNsGfGyOYHUYkEUmxByflwtdDSFRjHpSHDfOt3byQ96W84TAAFxsZmFwHSfsAwfR+TL49JYKnAaxwlrh7HTJu5HSj+rkgW3yBEsw9JwHgKXE2g0zkmq9OaP6ikAqd7zimeEOAlDgEQkf41TH8+QlkVMXkO4gHtqTqm11MOtYh63OYTAGn/EVoCwIZN9KFU96iZWjhDHHnKlR1Gn/6EFHfRoTTp7UaSEnUuwFx6PELG6Ly37Mq+c/Pdgi8NGFgZvaM/6ydWhEb8Uc+EHu5FitvMXWjkfUyXmUKrzYD1iCcJWnrI+rbdAyBWhz7V1GNuHPlosJKgUPGtbSmUKjTL96ZXIEXknSuIpjci27rTX/r6fiHtdgwT9K5Cjm1570NUfgqzn3tuRcG2uDMUYJJfsf54crAlzSNQjXmUc0KsllBNSuIJMIGWZK2PrzKFFZ6xD3rU+K22GSQEMi4DlZjs6WFkz8EGI2MG5hse8t/L77MU1iDLvXiz4/izxyiOXjBMVVtp+ED7f2o+iyuPvs7kvDbIGrPKQDUk9M/ZKF4vbDurVHHGpLyFEFtEq8xB1Jh/SxJsQeT68Dk2gmm9yN0THPVVpxUT0sWdkhUs4JTPtZfRM29EMi4CTpB1mZR+XZMoetppKIdTiri9kEyE3tQ9Xlsru2MnyNwxF2rydbnt/v57IcyhexvPFuDO5YEAMWO3tNZxEJzfuLXk3wHutCNDbKYUjfOD7EqBOXhhAQp8SqTBFNp/G0zhWeQDXTIRhkX5hfl/52QiPo8hVDiBMzPT2By7U8vLHYWU+jCzh7Cnx+lmWs7syOyaSFK0taPKB/6oJKZvxSIoedOGCjmTxnCx039PoO7IO5cjXAW52fRQe6o+ONsGqLFMeH4bkyxi6R94BksfotTxHV0qW/R/j+en+H6y1cRafja9/Ygu+pn9uFnDAt9dLEHf3YEGddxfvaMnyOsQXcM4lWnuuKK+WBg5YefDRuwJAUhZtacdCczpi+uRj9nSj1pmZWzrdLtVpzdMnFOKIKZIbCGqGf9CfX8i5d/pW4idJJaERZu/kXSxNXLvPiKdbzuhk1YbZCNypGuosVbAYfJd4JzeNXp1NKdBTTWD9FtfVinfyYO3Bodwon3sgRAQnzSHZO8xypvIGkfPG29vpMpIfTnRom71mDPsksWEsfLuA5CLOqznJBQnaOn4HHZpl6uu3CQNQNt2PL0IkjkyYqiDXLYTB5Vm12QKzpMIK3y2/Gz76DQDvm24+/lCABR6Dzh7uhy2J/VxR5scPqFEM4RTO3HhgV0+8AS1AKIdNd6wYJ0/KPfA5LZCa68YICB3gKZTMDLr9lAPD/bAtTTe0xOKky2DRE3Unn5bNbEOayfQRe6MVHlJ7U/V9TBPMfey9MCZGpH72yNhOobLHJlKveebvd7qMokqjFP3L2mZWrdM1p8YZKUdYf5hSt5QiKSOrJR5hXXbEx5g9O87oUbact5iLmJs5vv0weW2GypVUC6sE5jYS261AtWrZe15GUqbqCio/fytABRdPRuxohG/HaTa0tTqqfc/QJhNcHMQXShu6UMPrPd76RCNivIuEXcFkgAnZC4uUlWd+e44ZKVoBNsbNiyppObr1pPPDWK1I2nZwVcKvQg0yzjghJarffoMI+w7s2ZTI5j72UJgGw2Tu9cTOhHlzttr9GFnjMulleZRCaNtB7gmca8QqRp3NlDqf8Psgu0JgJhE5LpMW6+aj3tbTmMaeXlnOM9r7qY7oIH0yOLtwLOHYkGrApQjXKrf3hhoDSFDmzTe1FiNwxosQUtNqPF5uUJACe24cQ2EBdi4r7XWBUKkzudCpfufn92OPV1meIzIn6HIwlVnU4fcksAWgionJTI6ixFz/D6GzeDO2qFTGzYsr6bd95yCcnkCCquLc4KtHa7ExL8DLJZWbCLE85ich1YXIepTbzANqexjfRelgDQcYKOE5I4FrpRe6XJteHUqUmYkxJVm0HGDZL2wcWlak/7wAyqOoVF4JRaMAEUzhFPDvOCi1exbX03Nj5Bf9CGn37FRWxf3Y4Z2/+0Q0KTKSCjKqo+B3IB0ouzuCCDDXLQmLmZ2gTUJ9N7OQKAykh6l4e3Od282OQ6Tot24Rz+3Cgm154SJPsMd7/08MqTyEaFUiHEyqD1kM8CAKmQ9Xn8qMJbb97e0hBPWDhjyecCPvDGK6E8harOLD5N7FzKAxAEUwdQ5XGQZ+8kdkJhsiWM5VrjPN84D+O85QkAIwRGCDTuOqt8z2YKpzb/QiKbVVSjQtLW/8z3vpBIHRGP7OXK7SvZONhOE3/BOzWZOMiVW/u54ZJBXJycWqWNY15x7Tpuvmod8aE9KVldlCVwWC/ESYUNc/hzo/jTB9LveMbPcWkaHLdJeY1Nnl/H8+vLEwDKGZQzCK1f4PzsKWviDvtDrzKB8wNMvn2BAx3OtPsFYnwvHRnBh998FdPzDUSYPXsEIBWyPoesz/KOWy5BKJmWG5yGy+EcP/+W59MRaOT0ocVZAedA+SAVzguJ+jbiVSbJTOw+jiucigfYMIeTvudU4zIXVHF+bXkCQBQmEYVJDxlfbjLF0zDmNE73qjPoQk+rbPrp2wCnPLy5ceLJUf7rT13P2r4CY9NVRJBZ0Ocm40NcfcEAN1+++rS7/ygh1Gxe3cm7X3MZ0egQqlklHUC18BDV+hlkVMVmS0T9W5C1OYKxp04PAudwKsB6ATYuXmZ1N1Z3LVMXEHVhml1rrPHWp/7uNOSvWUboKI37n4nkKxWqWaVxYCdveNE23vTi7ewbnqMWGfDDMxJLJxWyOoPXmOO9P34Zwjv97j8eMTHvuuUinrexCzOy2E4ogfMzyCRC6ASTKdEc3IpXnyUY341DntJqOanSDGpiLk6qmqSmlycAkgh0zBYnVWiD7KlDMCFQ1Rmsn0mTQ0/X/AuBtAZ9YAcXr+vi1955HWCYmKsTGYfwgjMYAJHW4o3s5SVXrOOGy1Zho2RhILeOTMbj4z95DV5jHjk3jpMLJ2XWD1vdxgZhDTZTojmwFb8ySTi17zRuReCCHBK30Rci55+DbuQlAYCvHcrYC53yTx2CCYlMIrzaNKbQuagHd5K4KiQM76Qz0PzeB15CqRAAjvHZGlYonDp9BOCUQs6MUBIxP/emK1Izu4i/bqOE6y9ZxZtevI1oeC9SNxeoDaSlYumIOp3+DKsx+Q6afZvwZ4fxZ4db3/0EIuhncIhul1O9rqCWJwBcRuGU2OTUKUKwlsYfjO9OzV+u/en7fqVQE/sJ6zP85ntfzAVr20maCeAzNtPACZXuJHfqiEHFdaLR/bz9FRezfV0PJtYIAcpXqNA/6ZZSnLAcgEn40JuuYG1nBrdAbUAAyJTzHC01S8vBdKmPuGsN4eSeNG18zOYQrRpDJ2TeJnaVi5e+QmBJAksnDA671XqZtLTaHR/PhuNP4dVmsH6IDXJPy/875eHNjqDHD3DZ9pXsGZ7ld/92gjixrBtsY2KmgvT9VuLl1C5Ij+xl28o2/vNrLwWdpKXqiWHXvll2Hpxlar6OsRYlFSt7Clx74QDd7VlMcoxCqC09nXk+/Nbn86H/eQdeRy/mbLmMVt9A6wOOmy4irCbuWoWMa4Sju7CrL8H5mZY66nCejxMS3y+ulH6wPAGgVIdnorlu5wfHkRmnvNS8VSZa0zsXl6Y9bvErUzQP7OQdr7yEj73lCqSA0JfEiWWqHPGNe/emgyqEPE7SPfx+NTuKrM3wiQ+8gmIhxMUJjVhz6207ANiyqoML13VRyCiqDc2e0Xn+/LYdvOzK1Vy0vguj7THaQMTrbtjE1+7Zw+0P7cbf/Lw08nFnJp+HZfAT+5+Fs0S9G8kefJjM+FM0Vl6YvsKlQhfKR9fn1rtzUDK+JACwca3XYQedFx4x704qVH2ecGIvcdfqVKf3wkWXWzvp4dXnae59nNe+cDO/9s7rEM5gjcU5yPiSVQPtCCGxQiFO5NNCIqM6zYO7ec8tF3HTZWswUdrNHHqS99xyIX6mFZIae6Q7fdvGHl7aSJieq2ONO1kbwPELP3k19z/xj5QnD+L61iGcOS0HSJtexKktRctCNPs3kzv4MP7MQeLutSlfkDItkPUzPTLI5oAlVYOWJgzEKzpHznpB+vBFivRw/ClMto2kYxAR1zHh4tKZTipUVCXa8wgvvHgln/7PNyKcwWh7ZLM5AGuIE404KTZP+Yc5tJMrN3XxkTdfCTo5xisIpACX6JYE7zDGpp8fazK+ZEVv8ZScxcSajas6ed8bryIeP4iqzZ6ZEAqZPpfTSeTWYLMl4q61BDMHUfVyKh4hW8WtyRqpm0suBCxNFODJFUJI73ArlBOKYOoAIolo9m9OCzWtTgsjF0oApUIlTZI9j/C89V380UduJpNJfbzyWl9bSmTgHQXCiYRMKtzEEF0q4r//fzeSz3kYczz/UKHPZDniX+7ey77xMioMUYGPto5alNCIkpR8hiHKP56FuyTmna/Yzo9dtQY7tq/VUyiPpX6n2OynH4AhjCHpGMSGRYLJPUd6FJ3yMEa3NeM4uyxdQNKsdiFk+sClRNXm8OdGiHo34sI8sjqVTmH3goXl/oVMBaO9j3DJmhJ/+cuvoZRVHDg0SzMxdLdlsAj+7x1PsnVVOz92zQZC7wQsKw83N0EwP8qn3ncj29Z1Y6L4hMX3uPP+Ie55fJTXXL8BIRR/+bVHufuxEQ6Ml2lECUpKOktZLlzXxVtetIUt67pxWmONRXgSIbK85gVb+erd/4K352HU2guRfpCSPXmUF7jD/3PGyicHQhH1ric79DDe/DhJ16o0gnAUpLSl5RkFWAr4qtXMYQkn92Fy7ej2/rTVSyeAPGOMfpyptBoOPM4FAzk+/JZr+F//eD//9oMD1Bqacj2ikPW54ZJV/PTLL+LBXWPsG56luz2Ls42jO79Wxp/az8fecgW3XL8Re+Li+4pv/+Age0fm+YmXXsCffvURvnrPXibnG3hS4nsSIQTaWAJfcWC8wi2f+BI/cfNWPvLGyykWszy4c5TvPHyQz9/5FL/x7heio4jfvW039QTyROiVF6Skt0X00lnlZyFy1mCyJZK2AYLpobRKWHlIjzaV8zuXJQC8nOxOEgFegDc3hoyqNFZfcgTVwiYpmTmbaCIkWIN/aAc9OUt/V4mf/+M7uWRDL+/78cv4oy8+yFy1SbWR8Hd37uSbDx7kf/yXm1i3oo/OUgZnTdrg0ajAwR28/8e3865XXYKLk5NhZx2Xb+ljeKrOKz/+RTau7CAXehRzAfIYV6Kk4NBkhd98zw18/C1X8s7fuZ1H907y3ldfysc+ezcN50EU0VXK8uM3Xswlm/s4NFHhWz8Y4st7x1D9LXLoXJoaXkAiSVhD0rkSrzKJNzeShoKagqmZ0rLkAC5ynUiFMAnBzBBJW386c7cl9wprWunPM7R4t+by+CM7yJoa1chRacR87qM382f/9TVpaDYyi+8plJS050Mq9Zh3f/rrPLZnhM2ruhDW4Edl6rse4h0v2cjP/acrU3N9gtuRUoBU/M7fPMAvf+5ufv/9N3HjpasYnakft/iHX1trJvzan93N1nU9/ONvvIa9w2Xe/dv/SrZY4iWveimXXn8NH/uTu7jpA1/gs1/bwYNPTXLBul5UVDtyWEUa/qUlYmctgnEOG2RI2gfwZ0cROsFJGTrILE8AOJd3no9XnkBYTdK54hix57Awc4b8d0u88Ud20iGaID1eff1GPv+rt3Dp1n5q1Xn+6vbHCH3vmA3sCH1Fklg++AffpKejSEEl6H2P8v5btvPJn7kOtMaekOkRgPA9fuXPvss/3fUU3/i9N7BpdTef+9ojBC2SZ6wjPkb8yYU+D+2e4O6HhsgHHp4S5NtLzM/McM/tdzA/NU2hkKN/+/OIerdwx64qf33HDjpUjD9zECc9hElS46/8BfFgYQ26rR9IG0sQQgqcWpYuQCB8YTTe3ChJqQ/r506ejiFOn9wB8Ed3YsvT9Kzr4YNvuIybLl+Dchaw/OCpCfaOzpMLPYSAZmxQUmCtJZfx2Xlwhq/du4c3v3AD29Z28cYXb8MlMeYUaT4ZKB7eOc6X7t7N3/7KLaxb0cuH//B25qsxpXxIlGgK2YCe9hz7R+fwvaOguO/JMYyDibk6L3jZTSjP49DuvezfsRPnHJOHhli1aSOXXXsV37/jTuJmGVXZcyQEdEItPA3e6hEwhS78+TTxZO3SD5NaGiHIkZY9O5c2OJ4o9QqRvsidMOunNcZNjewk05zlRS9YzW33jtKIHUpJTKRRnseekfKR8K3WTHjpFev55E+9gF/87J1859Ehchmf2+7dz+2ffh3dHXlsHJ1WlHPasrqnwBd+9RY2relidGKKbz90kFzoEWtDb3uev/jka9i4opOP/fEd/P03HyefDfA9wZMHZ5mpNMjmC2QLeYSQbLrkIlZv2cT06Bgj+w8wduAguWIBz/fZdO11jB0YYmxoHyrM4IJMSoQX2rCCRRd78CqT6Qh9sfRS4JK4AAtCtNirC/MnVPmm7dKp37NHLcHhxR99iqA2zetetJoXXNLJqt4Mf/rVR3HacjgXE2tzrLXhbS+7mNV9bXzoP12NryRSCsq1iEMTFcCe8fla62grhmxa1Q5YhiYqzFVjlJI0mgmvvn4zG1ekZPuW6zYhWoD1lOLA2Dzf/sEBBlcNoJSHNQadJHiex+C6tVx+4wu58PlXIoWkXq3inOWia5/Phq0bsY0qRoWLqyy2FhsW0uJQ54SQYnkC4PBv0oWuUxo3p/z0WJbDJqwli/rjuwkqE7z6xlVsXVOkGRuuu6ibB58a43tPjCJaIk97IWxRCUcm8BjsLgJw0fpe1va3o3V6HNxsucmCzvmz7kiCJ7UsR2P13o78kde1FzL4nsI58DzJyHSNyXJE38qB48yxcw6dJBitaevq5NIXXsfGi7bz+L338/j3H6C3t4tMJsQXJlUiFzPuTqq00dU5IezST3dfmg90SKe8dMr3CeZftEqbDo9IQ6TzgMLx3TA7zg1XDHLpxjYakSHRlvUr8vR1hvzF7TtaX8+yYbCN0EuTKfUoYe/I7GEFks5SFmPTvL5xi/dd3W05MoGHdQ5PCh7YeXT49/7ReaIkTRkLII4T8qUShbY27GmGW5qWVRhYs4rnvfA6pkZG+O5d32fj2nYKNFFzYzixSC6nPJxzJ0UzywgATjjltaZinYyOI2KIiXFCkhl/Cr88ifUC2grekR/mHPhKcv3FPdzxwH52HZgBYNvqTlb3lUi0QQj42zseSxVIbZmtNJEydY6hv7if47RlXX+RNX0lEm3JZQK+cd9ebv3aQzy6Z4I/+dIDR0hgapEN3YP9KHX2BUzihGJHO2u3bkXh6GnzaURG+5XxhbeJHZN8EgIrJXp5AgDMUa3zZHXTeT5O+cioRji2C688SXPFNkxYZP9w5bjYO04s29cVCX3B57/5JOCTzWd4xdXrqUeafMbnzgf38/bf+Gd+7g9uY9/oLL6SZEKPlT3FRZWaWefwMwE3XrqKZqyRMhV+PnXrv/PqT/wduw5OkwnUkcpgPwjpGRw47e4/6fO1IVvIEwSKg+N1osQ9IHW8yysv1go4wGkpXbIsASBOnwdtkUAPk+vAnz6IV52msXI7JlsiYxs8vr/C6HTzyO61zlHIeqzpz+EQjI7PYpKEn331pWxe2UGtmZDP+HznkSH+9Z7d+J5irhrx6us2sm5lOzZZZJOpNbzpps10FjNEiUUIQS7jkw08Al/RjA2+Jwg9QUdPD7liccHhmJCSuNlEa8vwZBPfen8oVPA5rzyxsHbxw4tvNFKFM2G2e2JZAsAP8lPpeDd3Sg4mnCNp78dmizQHt2KKPfhzo0gTjTWN2PGV74xRaxpyoSL0JdPlCGsVV23p52Wf+Gde9dEv8q93PcmvvuN6ukpZ5qsRge8R+orZSpNXX7eBX/3pa0DrRRebmcSwdkU7n3jb1WhtqNRjmrGmESfMVZqs6StxyzUbaMSGgXVrFjXYWQiYGZ/AWEdCdK9XiP4mk23/vNJ63qtMLtgKSJNgrZ6MmpWxZakDGMRBnEmTOKcSOpxN5+uv2J4GcnEDNT+Gn2n7u3yu4w8OTe3/zp99df/ANRd2sXFlgR88OUd/Txvf+MFBVr/mevzA51e//gBbM/CZD7+UP/2XR/neEyNY63jfay/lYz9xFb50x1XtLMoIRDFveckW1vQW+Ltv7uTAeIVC1ueFF6/g9Tdu4f2/9w2y7R109HRj9MLcsPI8ZsYnmRweRQpvv8xV3ilzTWenckPCU1/wKpPvSpW+M89FEM62kmluRthmeXkCIJqfFsJDGI3zz8BkWmGNV5tEJU2jhPpLYZp7C+3h9bNl+1tfunv0ldlA5eJY89ZXXsndT46w8oYBCt0ddG8Y5J7f/ht62jN85qM3Mzo+jwMGe4s4rTH6GTSZACZKuPaiQa69eCU20QgpECrH57/xMHc9Osz1L71h4QKOEDhr2fvEk0g/2enL4MesY79pBGitQXCrimvvUvV5dKHz9PWErUGaQkfIoLDPC/LTy9IFhPmuYeEcMmmetUpWOItfmQQpvx65+AeNxgwCudf3gzcVC4VNwqjXKqnmZmcr1K0hyIWYOGF+ZIr+fEBfexaSmIHuHIPdOWycnKT3n8kkq8A7ReXQYV1KYLVpLb7gwOgEv/3X32XtxrW0d3dhFkL+hEB5ir1P7KA8PVfOFvgJ5bMf6+O7brLZAtlc6bvKC7+jyuNn1QLRcZpI0s2ndH22tiwBYGI9jHNlkZxFiBESGVWRjQpBkP2z0AsJpNd6i0AqPZIr1L7kBeaeO+7eAaGPnw0RUjI/Ms3q7jyZXAH8dJavNaeu6xdKpgstjqYhVOhjpeJLd+3h4EQFpY7+dKkkwvP552/u5DUf/Qd++dZ7GGvCR//oTurWY8vF2xe2+IBSiqFduzn41F4yfumDrtb/AM0OvEYPSeyToEmcwUnxV6oxj4xPP33kyNAraxEhu0R+mZaFy0xzyhoxLKNa6Uz+zAmJKk8iBHtcmLsNJHgaU6+hnIeJE4wXXG+Nu1r7PtWhcWb3jNBz4SrqU2V627L83e0Psn94llwhyztfcSHZUB1nAZSS3Hr7DrqKGV5+9Vr8MFUh7/rBIb7w7adYN9DGi5+3ksOTOJUU1GPNR//o37hz9wxbXnoZX/nuE3z3l/+ZoaEZrrzhOrwgWJDv9wKfkb372fP4DjJZ/pe08a06VoggQEqFMpUj0jLS/6pzybSqTnclnatOO0xDNSsgmDYJO0mWKQCiyEYS8biMGxcIk4BQJxMb0WoOrc/hSflF2ShXnXN4K2bR1RLCBVgrnu9i9w8m296R9G2A4Sd5+LNfZvtP3kxoEu554hD/eqhG1+aVjN72OM+/YICrLhqASB/HNV519To+f+cufvH/fJf+zhwTcw3yGZ8PvuFS1q/qPN5t+IrHnxznW7umufFj/4mgJ09Ua/DY33+by268llJXJzo5e/jt+T5Tw6PsefQxlBA4FSmZj5E6g7+iA5XNEo1OoKutxlIhRtDx7V5t5q26Y/A0KWGNbFZByEcQHOIcXEtjAfBB2O8JHb9BxvXW4Ad30u73GjMI3XQUO/7eiYCgYxKvvUlzpA3nzFtckvyJzpWKUf9GnAqIV21DDD3K439+G0EuREea5/3s9XRuG6S8a4hTzdM11tHVFvL+N1zG/HyD/WPztBdC1qzoAKNPqgtEW9b1l+hpz9I0jmhojgPfepj1F26hf83qBS/+7MQkT95/P0mmDVvsQYzvea+L/cTLiJ8TQiCkwO9sx85XcVGccgXh/4OL629Nzyg6YSJpy12KuIkM7e1hsWydW6Z9AUE4idXBv+t6pqYa5bzJtiM42aR51Rmk8O6jae8nKKPyc9g4zFvn/rcxzbeZtl7innVpUajVOOmh+zeSnXgSCWhj2f2177NpYhNFndDXlQcUQhrcMYCzxoGJKWU9LtnUA9advPBH5F1Ld2eewULA7NgMs997DKVhw0UL8/ue7zE/PcOOe79P4mVJ+jfj/LQ/Ipw68AHdrG4yjebbrbFTSIlq87Ez04fby79lEjes6nMrTOb4mUpOSFRtFunMpJbel7XpPifHCi3NjKCgFxO0P4wUd6v6KaZiCoHUMbJRRvnmK0pVkaEhme8jmui52SbubabUS9S3KT1QSYhWChlsrp24YyWFfJZNl15EPFrm3r/4BmNjs3zoD7/JV+7ahXGiVc7toTyJkqLVfeWw2mCtPVyZdcwtkFKkMrRS3HLNOmrfeYiRh/aw+YpL8X0fdxbFz/M9qvNlnvj+fUQyIF65Hac8hI4x+Q50vgNrkpc3hg7dXN+9l/qu3UST85AoiAREYlYK+U1VnzuhqSQtIVO1GayTX6wxuWNeH6Csh5anBSibYRAuzquOz8lm4+Z0EMJRXd6JdIS7NLFVuK+gNfgBNucB7ltCqW95tekb5VAl7Ys7XE59uJsWy1ijhmrr5Mqbb2J+aoa5qWkODI/x3t/7Bpdu7OX1N2zm0g3d9HfmacsHZEIPKeRpgxJn0xSysY7QwZreIuM7DrBy43q6B/rPavo932d2coonvn8/Oo5R2QLh+O40bnetSmhnrfLVn+dc8Z8EEoFAk1AX9lih/DYZ198mkuaRgdJOSrzqNL5tmtlG8tlDOwVCZVi2HGD8SR/rHO0Z/cX+bu9hrzJ5SZRtO8YNiHRCFu6hxKlHcAqa4BccwKwn5cuMjn9MOvsyG9dWgcjiXIyUNSlc2ViGlFJzI7v3fqBQKm1YsX4dxY52Vm1cz8zEJLsef5JfvvUeMr6kmPEo5QPailk8KdNTQA7vdARCKZwzKJVGD/V6E4tg/0SVYv8gG7ZfcFbGrzyPRq3OzgcfJm7GE17gfZO4IT3qCKEaTvjDQkV7HOpuJdVOrAAn0jmBThCQPxaKd8e2UpPNSj6dpJ5K5978OAL5rx1t2R8wII5GD8sRAJk4xFqHn/O1l/Fv1dWZ/yE7GkcaQVM2W0G63J3ShukhgBEQWZAxOGLgy0LKL7vDZWPWIaSHEOkRMhJJoDLDex974h/aujrJ5HJYY+gZHKBWriCMZvMlF1GvNYjjmAOHhpFKpcmb2CKlQGvD/PQ0fatWksnkETiaps7Y0EHa2tu5+PlXYLTmTIc1KM8jajR49J7v06zX5/y891oS7nFCgnAI4YHMAK25gO4YUUdobHEIKY62iCPcAVnOP6oatat1ibQjqjaLas6jhff7UkJnb5ZzdS0JANZsLh1Re+PI/bW0yUe88viquGstAouM68gkwi/V7pRe66E4B56Ptcf33p1OGY+dIZbxP7qo+bk9jz7+zguvvjJl/a0CjM7eHrr6++gwBs/3qc/P0dbVydqtW9BJglSS6lyZR+65l41bN+IFwRESODU0RHtnR+s3uDP6/HqlyqP33EezVq60rTev8wu995T31NANi1DH1hadpOmhjcHMd50slln9PamqV4vWPGFvdhiJ+qIi/CbGwTk8T3tpikLrx9GXaYT/+155/Pd0sRcb5pFRDWFN2Ua5h9yxR8xFCpFhQWN9g1yQagnZ4ienxsdfPHpgaO2K9euw2pArFqjMzqWlWUYjvbReLy3VitGJRlpJEsc4a7HOpQRPCOamprHW0rtyxRnz/L7vMz8zy+Pfv49mvTnXnvfeFOabd1opWGitZpL1MXgnvFqATe4XcQ2sxatN4zWr82Fx4JekPPcnii4JAMJS14lw/0xcn/oJf+bQ5dHgBYiohlD+Livbho/7PQ6kiYDmGVM1wgvxSqtaRf1iLFDz/2XfE09+KVcoyM6+XjK5LEO7niJqNhFCMDk8TK1coa2rC6k8lHMIqZBK4pyjXqkShCHZfI65yUlyxQLZfO6UYZ+QEuUpxoYOsuuhR7Fa71Ne+FMSfZezYkFxlAAMhkjXTl0DYN0O4RyqPos3O4Kn/F8mbjxhqHOur6UZEHFCx61ANJzM/rypTX1NV6eyQsdYyePai08+UzcxBKcxm4f9ipABzmaOCCVhpvurNOrvevg79/zJ9udf4edLJaJGk/v/7VtIpWjUavhBwP4nd1Kdn2dg7WqU57HviSdp1mo8dNfdqVXJZIgaDQbXrU0TRCcAwPN9kihmzyOPMbJvv5O+90/FQvsn6rXmrgXvS5EWuTR0hIvtKa2FEGJMKDEfzhwMBeYzNuv9QeTO/eIvGQAabvYUCRnxLYn6ZDB14FNC2LzUcrd3yjFnotVle6aHaEjnIriW33YEOf9WKWV+aOfuP1y7bQvZfI5CexvWOrZefin5YpE9j+9geO8+xg8ewjlLrlBk06UXkysU0UlMbb5MHEWs3LD+iPkXQiCVwjnHyP4DDD35FFGj/riV4oN+4H1ThaGl2lyE0CKoR5bhim79RnfC5odi1jaKyt7rC32/Kga/0dBySWYoP3scIHPKYnCUUL+faTRd3HS/FDt5aLKiT2siu7OSzKnmOwmJihOYPCqFW6AhwBPebfVqtTK2/2DRD0O2XnZpKh9Yi/IUQRhQbG9nw4XbiBoNelYM4odBS+ARiFUrjxBJay1CSkyiqczNM7p/P6P7D+738/rT2ULmzys1VzvCUBcRkRnnGKcN8r2nIYeSRFYbIph5V1CMxqwl4Vm8vHP1wenABlymwB8Y5T+Q1LyxIOg5rZ2sugSfiROigHQqjjKSE3XwVqv97sTTPzN+6NDftnV1+To5GsIJIcgXi0yOjNLZ14MQEqM1+jRTQYUQmCThifseYHZyCikl+Y6VH3Vy9B9cYp6WaNqaBca8E8TudEffGnKu2Oz26wchftZPkT9nADhq7ZxRWf/fa/VOxmUGOJ0VkJRQKJIjByukvUSC5HBh/qmN7D9K5f2cs+aPj60OsMbQ1tON27GTyuw8hbbSGUM8hMAYQ7VcRvnBQSnlV7xs8+tCFnF+jKtHz2QrnP017jl8fPxZf96RsShnOgDanfT/lAMfBZ49ww+QGNxjx03gcA7nHEEYEoQh1fl5ih3tZywZd9YSZjLkSyWqc5WHPd97HyoBqRAEQJOTyk+Ee7bPen5uAmDxe8YhpCQsKRbUDqeddq0jWoQ4Sp+klGQLuVQpXMDnSKXIFwvMT89dHAT9ed2gdtg+ZfIZPNFMq3NaCp+LZconfki79z8sAHAgvQCtQxYyzNUarQPpTsnPsvkC5dlZFnoWb75Ywlm9wpRHVwFPHgGHSDMbVVcH4ahFwJ4cUGl17ojzAFiSvd/axVY3MMnCYmFnnQ4KxZPW3zlHJp9jcnR0Qc0czlnCfBYppUL4a4UQT56KLJ4WiCI+D4Cnv/YCQYCSKfE7hkafmWxKsDqxrgWeEwGQzeUwWmOSBOV5Z7QEzjrCTAapFNZFqxbLyB0OIeTTPWfyRxgARlIoRLQNFliUBOIEtulTn596Jc6IE3enEAI/TAs6jTYo3z/zOFccvh+glCLRul3IxZp1gcMgXYSU4jlBDX74ALCCXKHCti07CcMmdqF1bwJkkmH+ifa3xZr/VigVj5+/KwQ6Sdj50CMEYYjnL2AyhwPlKZTvY4Ve54XyacXlziVgFelgcHceAGd64DlfcNFgg0zcg2nKBe800NSqlRdp4X12xboVVObmEFIeLff2PHbe9wA6TrjkumuQnnfWEi/nHFIplJLEkb9KqPanxfAPA1GGIEyEbC5eQfyPDwAn8KTjgh5N0OwhqS/ccQoh0HFzXXnqwF9tvXJbJpvPo3WCkAJn0kWcnZxiZmKSy154fcsNmAV/tlQeVldXmurMM/6ZSlg6pGJUdPOsy3zLFgBOIKVjY+8MQaZJtNhyZ4eoTNc/M7h+zeDAmtUkccyG7duO1PoLIWjW6iilCHNZrFlER6+UZAt5ytPTCiPSESXPxMPh6JRlpkWJ2PnLDgQ/JAA4BjLTFN08zeoiKbMQ6Mi+O8wUbl5/4QUYYxBSIo8x/9akkzyGnnqKg0/tZu2WzWlT5gK/WyszOOV45nPZHOC5iE45x5juXXacwPth7P6ufEJfzhDp0qIX3zUb7XEj+YVtV27BD4Ij1bvuBF/uBwGrNm7g0J69rN60ccGfb4yhXqkifW/YeUszl9Hg0e41mbQG4+SysgLPLgAcFEPDul6BED2Lzq8JIWhMjn2irbNz7alKt0WrPMtai3OWIJMWq9pW+dfZowDX6heQeIqRTGapQjmBEppuU2W82basrMCzCwAh6PPLuLkm+um1OQVJs/6attWDBJmQuBkdl/6Nmk2cc+QKeZTnUZ6dI8xmUJ634MEOQgiU56Fjm2mapavGFDjamWVSFEinvbkfLQBYBxnP0Jkv4Cg+rey6RMXWjH1/bP/QFt8P6Brow29V9wohGN0/xOiBIUrt7WSLeaZGx9JyL5G2bR+ZC9A6Lu6IKnjMNpdKHT6uJ7AnOZdndoXEdKh5pnXnsrECSwQAd9Z/t87R5kkC7RY/zw8BromWdQKf9zXiZmH3o4//+IGdu/A870ihpdYanKNeq1GenUVrzdDOpxjdd4BcsYCfCQnCDGE2JAhCvMBHKQ8pZeo+ROo+okYTpdR0IewCl1kyEAgc63yPZkNQ08tDF1iiYdFnIEvOIlxIdzZDMciDyC9+9wsJuoxWNZKIG4xRa6WnGFy3hkwureaN6g0O7tnHwJrVbL/qMuJmRKNWo16pUp2bZ3jffvwwQIi0PNwe6V9Mz/E58SgHh32XQzwc5HJfcCzdkOZAwNaM5qEZMEb+0C3BkgCg5Dae1jAI68jjUcwI3CJP6jzewjhMM/rNJNK/sLId6ollZGiEbCFts4prNUJPMDs5xZ7HniRbyOEHAfm2EtY5dGLoHuxi/bataG2wRrPviZ2UZ2ZZs3UTUqpW+OcYOzRCo1bvq8ST/zsXlh+UsHspH7ovHZvyGXaVuzgH01+ffQDYwJ7FOSTPwIwKcJZmbfJTSZL8wrZ+y8p2S2QEU1VNpVlDCUc9UCRKUAxqjD31ONoKnJDpwczW0t+uqIyPcO/oJJ6fVv06nYBzHNi1GyFkOgLOgScMFw7A3knX1ZhPfsn3w59a6gefkxF9uTqj9RLuh0gIl2ZCSDx1jnUju7kRVz62pdeyrsvQTCSehME2oE2ghOOBgwJfwQX9lvXdoK3DOHNkGHQ+NDQSqDQ1sQYpoC2bAiwxCdaBajUTZwIohAKjJY+NubdlwvBPPaXuWuqFWkNMZGrUksJzGwAqaJzr+HHSD7yh0bLdJIWiLePI+OAphxLpeY/1BPpLDtsq0/MVacOJ545EITkf2jKOJ8YU2sKaToO27vCMquOsjrEw2GYZmhWi3pj/rVzBvwGWdlavwbGmrcHQXHC0BuK5CIBMe/85lg/ErBLlV5bHJ39zRyRepoQrBMqR8x350NGeEwghqTTtkZ18nAtycPhUOYEjtoJKM/23oyn/NF1nXDpyqBrBbEMSG4kz9tr6nH4+iLuX/rcZetwhzsFxQM8eAJyz59oCoC1P4dQbgkzQ5+LqJYmTF89G8qKpBjccnGONc5b5BsxUoRCmhz0pKfCUwjhHxktXuplYDs4k5EKfe/cLPGkJPUEmDIg0VJqpNUkMsYC9SrhHlPS+m/M6HxbniLAJwBmBc41nXSBaIgCcaxHJsqanwHi1zLAMxwtUvy7h66EPs/Xkyx9+/eVrXnXtej71F9/D89KjX+IknQDyyN5JnONBHNPG0t5Zyj7v/a/boppxwv7xKrVGQiMyzJQbjExXhnzPfdGh7vPD+D5p1D5nPC2Q+CJshbvn5sdaHOaHoA8uCQDqtXPnvxwQa83//MjVbPnI+/m1AyG3X3QJvmziErmlI9v2kpc/fz0ruovceOlK3vCi7eQyEvD4rb+6mx/sHLsnG6ibjHNRlOhXP3/rmi995C3X8Ft/eRe//s7r6O/KAYL3/e43GC2b3/f95H/EUdLqYnBH+v3dkZ4Gd05/63NTCTzX39w5hO9Rqs/wqftu54HB/85YqRvpop/KBiL7X/7nHdQjzareNlb2lnjRFRv5+zse5TNffni2I9fxHq2TSHpNhOCKlb0lnIl42VVr8Eh7BB94cpx/+8GByVzB+4JwaWHnMi3gWZ4A0OeYAsTaceDQqLjinT9N/tpr3Yr5XiYmmx0u9t7WkYno8WvIACYnZvnQH4zw+ptG+adv76DU2f6eXNfgo7XJYXRDkPG95927Y4yXf+yfqNXrOGDdYBfz1SZO+Z81KjMMIEMNJoLzAFjYtbFdnbMvKKVgcq75wj//x/t/YeOHXvu22tVievjTfwWu8XZHfqWxEoSiqQVb+w2lnOVzX3mIjhW9nyj0rfiCqTdx9RglgjYnk0vnpkdY0WYY6JA0ExgZrrJvxpspFjKfda1ZgsIJnJRgzwNgQVdzauKcfUGtrdiyqvT/rx5ccdXN7/8/W3IZ8d2sI+/Iv3ddl6EYOnZNKtZ1GhpasHtKUch5/yffXvgtMln0+CG8jMYYLsoKs3JDD0xWfYoZx0hFEmlBLpu51ToxhE6Onmon/SPe/yhXP8dO4Vn4E+cEAKP++Dn7gsZzrjmVHNp1aLbc7fn3hM6iHW/2A7dlc49m37Qi60NPwXL/kEfVZv+1c/Oa98kgIJmZIYlCRJAnjms3dIczzDUk801BWzb18tVIaN/P3qpdhO+FyCOHO6c00Kp0doAjnVd4TgmgkQgH0oF4lpCwNCQw23POvqCSUC27d4ftbfn2YsnF07OqEev3rSnFlJuS4XnFlasTnhjzmW7Yh/Nt0dvwaokxMUk1QQmBcBYXNV7c0eGYqUu6co5C4EgMGCu/4tmZ/daIn8XP/xuIvceyfSkVUipiKud+NRqpGJR5rlkAz567OXZpoyjTer463ajVMJG+xg94Xm/B8ti4x5ZezfCc5OCcHCp2zbzOKTUdTc7j4gw26YXUla/yPX15xnPUY8HGLkNioJ7gTOx+raHVhXR1f1bVZz8pbfTf+BG6lgQAvu08p47RqUQ15vZ22pw3qVFv31CKGS4runKOSAt2Taj5IJt9U6XSvy8jVVF5QUUIjfTLICBpuhtKvi01EknoQS5wPDTiEeP/TfmgeTgsindnVmRIqnb3cqzdX/5KIMPnbvkFmJgXGd//34HHa4WhMFZR+J5jsGjYMS4bbau3vbFeb967wpv4/OxcvWkNPw0WjAYcOlY3dXdZqpFgoGQYKUtGyvJATyH383JTg8jpQZdYpMQgxHkALPaqTR48h/vfYmTHBxorLtvgJp78v4FQL42d+4aOzYeemgk2t+XNGy2Nb1THdvf+zGsueNV9O4ZHHt43FwSejBMtsVbg+6wMPMj6FofgkRHRaMsUfu/SCwf7b7psxdgvfeab/+ZmRzI57Pd/JGK/pQaArXedUxXQZfyyXxnHN/IfcMlEW/e2W+vl0QdxsyIM1YPlqQOE0pl7d87MaRNaT+eyChlbFSN8i3U88Pioer6ncNaK/UjvDzs6gvc2KtX3jw5VLugt5e8ama3elXYDn7cAi2fqwbndNdY2fjtXm/tnL2z7QtwYx/NKSH/6IZtYTOxgtkZBiukn9k7dVCyUZrIiO+8SgVEaKzSg/ivC/k5Dk5VGThU7qmK+lmydna5m7310THqBMErJE469/9G4/t8AwKRSYysrxbMAAAAASUVORK5CYII=;" parent="ZW1LjItA6SQIXv06q-9N-72" vertex="1">
          <mxGeometry x="90" y="32" width="38" height="38" as="geometry" />
        </mxCell>
        <mxCell id="ZW1LjItA6SQIXv06q-9N-73" value="" style="group" parent="1" vertex="1" connectable="0">
          <mxGeometry x="30" y="970" width="120" height="65" as="geometry" />
        </mxCell>
        <mxCell id="ZW1LjItA6SQIXv06q-9N-68" value="disappear (42 43 44 45 46)" style="rounded=0;whiteSpace=wrap;html=1;" parent="ZW1LjItA6SQIXv06q-9N-73" vertex="1">
          <mxGeometry width="120" height="60" as="geometry" />
        </mxCell>
        <mxCell id="ZW1LjItA6SQIXv06q-9N-71" value="" style="shape=image;verticalLabelPosition=bottom;labelBackgroundColor=default;verticalAlign=top;aspect=fixed;imageAspect=0;image=https://raw.githubusercontent.com/LoganTann/discord-shimejis/main/img/shime46.png;" parent="ZW1LjItA6SQIXv06q-9N-73" vertex="1">
          <mxGeometry x="90" y="40" width="25" height="25" as="geometry" />
        </mxCell>
        <mxCell id="ZW1LjItA6SQIXv06q-9N-82" value="" style="group" parent="1" vertex="1" connectable="0">
          <mxGeometry x="30" y="900" width="128" height="70" as="geometry" />
        </mxCell>
        <mxCell id="ZW1LjItA6SQIXv06q-9N-74" value="begin transform (1 38 39 41)" style="rounded=0;whiteSpace=wrap;html=1;" parent="ZW1LjItA6SQIXv06q-9N-82" vertex="1">
          <mxGeometry width="120" height="60" as="geometry" />
        </mxCell>
        <mxCell id="ZW1LjItA6SQIXv06q-9N-81" value="" style="shape=image;verticalLabelPosition=bottom;labelBackgroundColor=default;verticalAlign=top;aspect=fixed;imageAspect=0;image=https://raw.githubusercontent.com/LoganTann/discord-shimejis/main/img/shime41.png;" parent="ZW1LjItA6SQIXv06q-9N-82" vertex="1">
          <mxGeometry x="88" y="30" width="40" height="40" as="geometry" />
        </mxCell>
        <mxCell id="ZW1LjItA6SQIXv06q-9N-87" value="" style="group" parent="1" vertex="1" connectable="0">
          <mxGeometry x="30" y="810" width="128" height="105" as="geometry" />
        </mxCell>
        <mxCell id="ZW1LjItA6SQIXv06q-9N-84" value="" style="group" parent="ZW1LjItA6SQIXv06q-9N-87" vertex="1" connectable="0">
          <mxGeometry y="20" width="128" height="85" as="geometry" />
        </mxCell>
        <mxCell id="ZW1LjItA6SQIXv06q-9N-85" value="window grab (36)+ move (34 35 36)" style="rounded=0;whiteSpace=wrap;html=1;" parent="ZW1LjItA6SQIXv06q-9N-84" vertex="1">
          <mxGeometry width="120" height="60" as="geometry" />
        </mxCell>
        <mxCell id="ZW1LjItA6SQIXv06q-9N-83" value="" style="shape=image;verticalLabelPosition=bottom;labelBackgroundColor=default;verticalAlign=top;aspect=fixed;imageAspect=0;image=https://raw.githubusercontent.com/LoganTann/discord-shimejis/main/img/shime36.png;" parent="ZW1LjItA6SQIXv06q-9N-87" vertex="1">
          <mxGeometry x="90" width="38" height="38" as="geometry" />
        </mxCell>
        <mxCell id="wyb6uJyL5mz71-DNMHDF-57" style="edgeStyle=orthogonalEdgeStyle;rounded=0;orthogonalLoop=1;jettySize=auto;html=1;entryX=0.484;entryY=0.02;entryDx=0;entryDy=0;entryPerimeter=0;" edge="1" parent="1" source="ZW1LjItA6SQIXv06q-9N-69" target="ZW1LjItA6SQIXv06q-9N-1">
          <mxGeometry relative="1" as="geometry" />
        </mxCell>
        <mxCell id="wyb6uJyL5mz71-DNMHDF-59" value="mouse hover" style="rounded=1;whiteSpace=wrap;html=1;fillColor=#FFFFFF;" vertex="1" parent="1">
          <mxGeometry x="582" y="510" width="128" height="15" as="geometry" />
        </mxCell>
      </root>
    </mxGraphModel>
  </diagram>
</mxfile>
